<svg width="201" height="200" viewBox="0 0 201 200" fill="none" xmlns="http://www.w3.org/2000/svg">
<g id="success" filter="url(#filter0_d_56_2371)">
<g id="Group">
<path id="Vector" d="M180.941 45.1172C183.098 45.1172 184.848 46.8672 184.848 49.0234C184.848 51.1797 183.098 52.9297 180.941 52.9297C178.785 52.9297 177.035 51.1797 177.035 49.0234C177.035 46.8672 178.785 45.1172 180.941 45.1172ZM180.941 146.68C183.098 146.68 184.848 148.43 184.848 150.586C184.848 152.742 183.098 154.492 180.941 154.492C178.785 154.492 177.035 152.742 177.035 150.586C177.035 148.43 178.785 146.68 180.941 146.68Z" fill="#5B186B"/>
<path id="Vector_2" d="M161.41 170.117C165.727 170.117 169.223 173.613 169.223 177.93C169.223 182.246 165.727 185.742 161.41 185.742C157.094 185.742 153.598 182.246 153.598 177.93C153.598 173.613 157.094 170.117 161.41 170.117Z" fill="#B62326"/>
<path id="Vector_3" d="M153.598 9.96094C155.754 9.96094 157.504 11.7109 157.504 13.8672C157.504 16.0234 155.754 17.7734 153.598 17.7734C151.441 17.7734 149.691 16.0234 149.691 13.8672C149.691 11.7109 151.441 9.96094 153.598 9.96094Z" fill="#5B186B"/>
<path id="Vector_4" d="M98.9102 21.6797C55.7617 21.6797 20.7852 56.6562 20.7852 99.8047C20.7852 142.953 55.7617 177.93 98.9102 177.93C142.059 177.93 177.035 142.953 177.035 99.8047C177.035 56.6562 142.059 21.6797 98.9102 21.6797Z" fill="#B62326"/>
<path id="Vector_5" d="M98.9102 158.398C66.5508 158.398 40.3164 132.164 40.3164 99.8047C40.3164 67.4453 66.5508 41.2109 98.9102 41.2109C131.27 41.2109 157.504 67.4453 157.504 99.8047C157.504 132.164 131.27 158.398 98.9102 158.398Z" fill="white"/>
<path id="Vector_6" d="M127.953 81.3359C131.004 84.3867 131.004 89.332 127.953 92.3828L100.332 120.008L89.2848 131.055L78.234 120.008L69.9488 111.719C68.4258 110.195 67.6602 108.195 67.6602 106.195C67.6602 104.195 68.4258 102.195 69.9488 100.671C73 97.6207 77.9453 97.6207 80.9957 100.671L89.2848 108.957L116.906 81.3359C118.434 79.8125 120.43 79.0469 122.43 79.0469C124.43 79.0469 126.426 79.8125 127.953 81.3359Z" fill="black"/>
<path id="Vector_7" d="M40.3164 177.93C42.4727 177.93 44.2227 179.68 44.2227 181.836C44.2227 183.992 42.4727 185.742 40.3164 185.742C38.1598 185.742 36.4102 183.992 36.4102 181.836C36.4102 179.68 38.1598 177.93 40.3164 177.93Z" fill="#5B186B"/>
<path id="Vector_8" d="M30.5508 17.7734C35.9453 17.7734 40.3164 22.1445 40.3164 27.5391C40.3164 32.9336 35.9453 37.3047 30.5508 37.3047C25.1559 37.3047 20.7852 32.9336 20.7852 27.5391C20.7852 22.1445 25.1559 17.7734 30.5508 17.7734Z" fill="#B62326"/>
<path id="Vector_9" d="M16.8789 49.0234C19.0352 49.0234 20.7852 50.7734 20.7852 52.9297C20.7852 55.0859 19.0352 56.8359 16.8789 56.8359C14.7223 56.8359 12.9727 55.0859 12.9727 52.9297C12.9727 50.7734 14.7223 49.0234 16.8789 49.0234ZM16.8789 146.68C19.0352 146.68 20.7852 148.43 20.7852 150.586C20.7852 152.742 19.0352 154.492 16.8789 154.492C14.7223 154.492 12.9727 152.742 12.9727 150.586C12.9727 148.43 14.7223 146.68 16.8789 146.68Z" fill="#5B186B"/>
<g id="Group_2">
<path id="Vector_10" d="M145.785 99.8047C145.785 97.6473 144.036 95.8984 141.879 95.8984C139.722 95.8984 137.973 97.6473 137.973 99.8047C137.973 121.344 120.45 138.867 98.9102 138.867C96.7527 138.867 95.0039 140.616 95.0039 142.773V158.266C96.2953 158.351 97.5973 158.398 98.9102 158.398C100.223 158.398 101.525 158.351 102.816 158.266V146.518C126.842 144.527 145.785 124.336 145.785 99.8047ZM52.0352 99.8047C52.0352 101.962 53.784 103.711 55.9414 103.711C58.0984 103.711 59.8477 101.962 59.8477 99.8047C59.8477 78.2656 77.3707 60.7422 98.9102 60.7422C101.067 60.7422 102.816 58.9934 102.816 56.8359V41.3437C101.525 41.2586 100.223 41.2109 98.9102 41.2109C97.5973 41.2109 96.2953 41.2586 95.0039 41.3437V53.091C70.9781 55.0828 52.0352 75.2734 52.0352 99.8047Z" fill="#B62326"/>
</g>
</g>
</g>
<defs>
<filter id="filter0_d_56_2371" x="-3.5" y="0" width="208" height="208" filterUnits="userSpaceOnUse" color-interpolation-filters="sRGB">
<feFlood flood-opacity="0" result="BackgroundImageFix"/>
<feColorMatrix in="SourceAlpha" type="matrix" values="0 0 0 0 0 0 0 0 0 0 0 0 0 0 0 0 0 0 127 0" result="hardAlpha"/>
<feOffset dy="4"/>
<feGaussianBlur stdDeviation="2"/>
<feComposite in2="hardAlpha" operator="out"/>
<feColorMatrix type="matrix" values="0 0 0 0 0 0 0 0 0 0 0 0 0 0 0 0 0 0 0.25 0"/>
<feBlend mode="normal" in2="BackgroundImageFix" result="effect1_dropShadow_56_2371"/>
<feBlend mode="normal" in="SourceGraphic" in2="effect1_dropShadow_56_2371" result="shape"/>
</filter>
</defs>
</svg>
