<?xml version="1.0" encoding="utf-8"?>
<!-- Generator: Adobe Illustrator 25.4.1, SVG Export Plug-In . SVG Version: 6.00 Build 0)  -->
<svg version="1.1" id="Layer_1" xmlns="http://www.w3.org/2000/svg" xmlns:xlink="http://www.w3.org/1999/xlink" x="0px" y="0px"
	 width="2040px" height="790.8px" viewBox="0 0 2040 790.8" style="enable-background:new 0 0 2040 790.8;" xml:space="preserve">
<style type="text/css">
	.st0{fill:url(#SVGID_1_);}
	.st1{fill:url(#SVGID_00000102525644284186825330000014756667947337282991_);}
	.st2{fill:url(#SVGID_00000035494050326144527080000000184340502884032649_);}
	.st3{fill:url(#SVGID_00000067228727580770031120000015896187399410510218_);}
	.st4{fill:#231F20;}
</style>
<g>
	<g>
		
			<radialGradient id="SVGID_1_" cx="-1181.0548" cy="2728.9224" r="116.231" gradientTransform="matrix(1.3333 0 0 -1.3333 2050.1125 4057.7461)" gradientUnits="userSpaceOnUse">
			<stop  offset="0" style="stop-color:#EB2227"/>
			<stop  offset="0.2669" style="stop-color:#E32227"/>
			<stop  offset="0.5971" style="stop-color:#D22227"/>
			<stop  offset="0.9595" style="stop-color:#B92327"/>
			<stop  offset="1" style="stop-color:#B62326"/>
		</radialGradient>
		<path class="st0" d="M557.8,426l-48.7-48.7L476.4,410l-32.7-32.7l-37.2,37.2L395,426l-22.3,22.3l22.3,22.3l81.4,81.4l70-69.9
			l11.5-11.5l22.2-22.3L557.8,426z M524.1,459.7l-47.7,47.7l-59.1-59.1l11.5-11.5l15-15l32.7,32.7l32.7-32.7l15,15l11.5,11.5
			L524.1,459.7z"/>
		<g>
			
				<radialGradient id="SVGID_00000087389736118367564790000008751379603977797505_" cx="-1015.1306" cy="2276.207" r="765.0955" gradientTransform="matrix(1.3333 0 0 -1.3333 2050.1125 4057.7461)" gradientUnits="userSpaceOnUse">
				<stop  offset="0" style="stop-color:#EB2227"/>
				<stop  offset="0.2669" style="stop-color:#E32227"/>
				<stop  offset="0.5971" style="stop-color:#D22227"/>
				<stop  offset="0.9595" style="stop-color:#B92327"/>
				<stop  offset="1" style="stop-color:#B62326"/>
			</radialGradient>
			<path style="fill:url(#SVGID_00000087389736118367564790000008751379603977797505_);" d="M629,277.4H475.6l3-7.3
				c6-14.5-0.9-31.1-15.4-37.2c-14.5-6-31.1,0.9-37.1,15.4l-2.1,5l-5-2.1c-14.5-6-31.1,0.9-37.2,15.4c-1.4,3.5-2.1,7.1-2.2,10.7v0.1
				c0,11.2,6.6,21.7,17.6,26.3l5,2.1l7.1,3l45.4,18.8l7.8-18.8H629c13.1,0,25.3,3.8,35.7,10.2l-95.5,95.5l22.2,22.2l95.5-95.5
				c6.4,10.4,10.2,22.6,10.2,35.7v142.4c0,13.1-3.8,25.3-10.2,35.7l-95.5-95.5L569.3,482l95.4,95.4c-10.4,6.4-22.6,10.2-35.7,10.2
				H323.8c-13.1,0-25.3-3.8-35.7-10.2l95.5-95.5l-22.3-22.3l-95.5,95.5c-6.4-10.4-10.2-22.6-10.2-35.7V377.1
				c0-13.1,3.8-25.3,10.2-35.7l95.4,95.4l22.3-22.3L288,319.1c10.4-6.4,22.6-10.2,35.7-10.2h52.5c-4-4.1-7.2-8.8-9.4-14.2
				c-2.3-5.5-3.4-11.4-3.4-17.2h-39.6c-54.9,0-99.6,44.7-99.6,99.6v142.4c0,54.9,44.7,99.6,99.6,99.6H629
				c54.9,0,99.6-44.7,99.6-99.6V377.1C728.7,322.1,684,277.4,629,277.4z"/>
			
				<radialGradient id="SVGID_00000179621710548188899130000017427917702457681822_" cx="580.1004" cy="5588.5532" r="190.6568" gradientTransform="matrix(1.2317 0.5105 0.5105 -1.2317 -3218.2942 6935.2178)" gradientUnits="userSpaceOnUse">
				<stop  offset="0" style="stop-color:#EB2227"/>
				<stop  offset="0.2669" style="stop-color:#E32227"/>
				<stop  offset="0.5971" style="stop-color:#D22227"/>
				<stop  offset="0.9595" style="stop-color:#B92327"/>
				<stop  offset="1" style="stop-color:#B62326"/>
			</radialGradient>
			<path style="fill:url(#SVGID_00000179621710548188899130000017427917702457681822_);" d="M557.3,221.5L557.3,221.5
				c-3.4-8.2-12.8-12.1-21-8.7l-2.8,1.2l-1.2-2.8c-3.4-8.2-12.8-12.1-21-8.7l0,0c-8.2,3.4-12.1,12.8-8.7,21l1.2,2.8l12.3,29.7
				l32.5-13.5C556.8,239.1,560.7,229.7,557.3,221.5z"/>
			
				<radialGradient id="SVGID_00000139972001346571261020000010585946258482167725_" cx="-3929.064" cy="796.1028" r="190.6568" gradientTransform="matrix(1.2319 -0.51 -0.51 -1.2319 5773.96 -674.0648)" gradientUnits="userSpaceOnUse">
				<stop  offset="0" style="stop-color:#EB2227"/>
				<stop  offset="0.2669" style="stop-color:#E32227"/>
				<stop  offset="0.5971" style="stop-color:#D22227"/>
				<stop  offset="0.9595" style="stop-color:#B92327"/>
				<stop  offset="1" style="stop-color:#B62326"/>
			</radialGradient>
			<path style="fill:url(#SVGID_00000139972001346571261020000010585946258482167725_);" d="M481.3,173.4L481.3,173.4
				c-5.5-2.3-11.8,0.3-14.1,5.8l-0.8,1.9l-1.9-0.8c-5.5-2.3-11.8,0.3-14.1,5.8l0,0c-2.3,5.5,0.3,11.8,5.8,14.1l1.9,0.8l19.9,8.3
				l9-21.8C489.4,182,486.8,175.7,481.3,173.4z"/>
		</g>
	</g>
	<g>
		<g>
			<path class="st4" d="M841.9,308.9l28.6,90.9l28.6-90.9h34.6v118.4h-23.1l1.9-92.2l-28.8,92.2h-25L829,334.1l2.3,93.2h-24.1V308.9
				H841.9z"/>
			<path class="st4" d="M960.9,427.3V308.9h24.7v118.4H960.9z"/>
			<path class="st4" d="M1042.6,308.9l46,85.1l-1.1-85.1h24.1v118.4h-27.4l-48.3-89.6l1.1,89.6h-24.2V308.9H1042.6z"/>
			<path class="st4" d="M1233.8,308.9l47.8,118.4h-26.3l-10.3-28.2h-48.8l-10,28.2h-24.9l47.4-118.4H1233.8z M1203.9,378h33.5
				l-17-45.5L1203.9,378z"/>
			<path class="st4" d="M1318,425.6c-6.2-1.2-11.9-4.6-17.1-10.5c-4.5-4.9-7.3-10.5-8.4-16.7s-1.7-12.5-1.7-19v-70.6h23.6v65
				c-0.1,11,1,19.4,3.4,25.2c2.4,5.8,9.8,8.7,22.2,8.7l27.8-0.2v19.6h-29.9C1330.8,427.3,1324.2,426.7,1318,425.6z"/>
			<path class="st4" d="M1448,426.1c-2.3,0.8-4.7,1.4-7,1.8c-3.1,0.8-6.3,1.3-9.6,1.5c-3.3,0.2-7,0.2-11,0c-1.1,0-2.3-0.1-3.4-0.2
				s-2.3-0.2-3.4-0.3c-6.7-0.8-13.1-2.5-19.4-5.2s-11.4-7-15.5-12.9c-3.5-5.4-6.3-12.1-8.1-20.1c-1.9-8-2.7-16.3-2.5-24.7
				c0.2-10.9,2.2-21.2,6-31s9.8-16.8,17.9-21.1c4.5-2.3,9.2-4,14.2-5.2c4.9-1.2,9.9-1.8,14.9-1.9c2.9-0.1,5.8-0.1,8.8,0.2
				c2.9,0.2,5.8,0.6,8.6,1c9,1.4,16.6,4.5,22.9,9.2s11.1,11.5,14.3,20.5c1.6,4.3,2.7,8.9,3.5,13.9s1.2,10,1.3,15.1
				c0,4.9-0.3,9.8-0.8,14.5s-1.4,9.2-2.5,13.4c-0.7,2.8-1.7,5.4-2.8,7.8c-1.1,2.5-2.5,4.9-3.9,7.3l17,17.6h-28.3l-3.8-4.1
				C1452.8,424.4,1450.3,425.4,1448,426.1z M1446.3,400.2c2.8-3.2,4.9-7.7,6.3-13.6s2-12,2-18.4s-0.7-12.5-2.1-18.4
				s-3.5-10.5-6.2-13.8c-2.6-3.1-5.9-5.4-9.9-6.9s-8-2.3-12.2-2.3c-4.3,0-8.4,0.8-12.4,2.3s-7.2,3.8-9.9,6.9
				c-2.7,3.3-4.8,7.9-6.2,13.8c-1.4,5.9-2.1,12-2.1,18.4s0.7,12.5,2,18.4c1.4,5.9,3.4,10.5,6.3,13.8c2.6,3.1,5.9,5.4,9.9,7
				s8.1,2.4,12.4,2.4c4.2,0,8.2-0.8,12.2-2.4s7.2-3.9,9.9-7L1446.3,400.2L1446.3,400.2z"/>
			<path class="st4" d="M1566.2,308.9l47.8,118.4h-26.3l-10.3-28.2h-48.8l-10,28.2h-24.9l47.4-118.4H1566.2z M1536.3,378h33.5
				l-17-45.5L1536.3,378z"/>
			<path class="st4" d="M1650.4,425.6c-6.2-1.2-11.9-4.6-17.1-10.5c-4.5-4.9-7.3-10.5-8.4-16.7s-1.7-12.5-1.7-19v-70.6h23.6v65
				c-0.1,11,1,19.4,3.4,25.2c2.4,5.8,9.8,8.7,22.2,8.7l27.8-0.2v19.6h-29.9C1663.2,427.3,1656.6,426.7,1650.4,425.6z"/>
			<path class="st4" d="M1716.6,427.3V308.9h57.7c0.9,0.1,1.9,0.2,2.8,0.2s1.9,0.1,2.8,0.2c7.7,0.3,14.9,1.9,21.7,4.6
				c6.7,2.8,11.1,8.8,13.2,18.1c1.8,8.5,1.3,15.6-1.5,21.4s-7.5,10.7-14.3,14.9c7.5,3.7,12.5,8.6,15,14.5s2.9,13.3,1.1,22.1
				c-1.9,9-6.1,15-12.7,17.9s-13.7,4.4-21.2,4.5c-0.5,0-1,0-1.5,0s-0.9,0-1.3,0L1716.6,427.3L1716.6,427.3z M1740.2,357.5h34.6
				c4.5,0.1,8.2-0.8,11.1-2.7c2.9-1.9,4.4-5.5,4.4-10.8c0.1-5.2-1.4-8.7-4.4-10.7s-6.7-3-11.1-3l-34.6-0.2V357.5z M1786.2,403.6
				c2.9-2,4.3-5.7,4.3-11c0-5.4-1.4-9.1-4.3-11.1s-6.6-3-11.2-3l-34.9-0.2v27.9h34.9C1779.6,406.6,1783.4,405.7,1786.2,403.6z"/>
		</g>
		<g>
			<g>
				<path class="st4" d="M1415.3,552.8c0,6.4-2.6,10.3-7.8,11.5h-28.9l12.7-12.7l-47.9-47.9l-22.1,22.1l-22.1-22.1l-47.9,47.9
					l12.7,12.7h-248.4c-2.6-0.9-4.5-2-5.7-3.9s-1.8-4.4-1.8-7.6v-86.3h-24.7v86c0,5.9-2.4,10.4-7.2,12h-15.5
					c-2.7-0.9-4.6-2.3-5.9-4.2c-1.2-1.9-1.8-4.4-1.8-7.6v-56.3h-24.7v56.1c0,3.1-0.5,5.5-1.6,7.3s-2.9,3.6-5.4,4.4h-81.5
					c-5.2-1.2-7.8-5.1-7.8-11.5v-56.3h-24.6v64.8c0,7.7,1,13.4,3.1,17.4c2.1,3.9,5.4,6.4,10.1,7.6c4.2,1,9.9,1.5,17,1.5h75.2
					c0,0,7,0,9.4-0.1c2.3,0,3.8-0.1,4.5-0.3c1.5-0.2,2.9-0.6,4.3-1.1c1.4-0.5,2.7-1.2,4-2.3c1.3-1,2.5-2.4,3.6-4.2s2.2-4,3.2-6.8
					c1.1,2.9,2.4,5.3,3.7,7.1s2.8,3.2,4.3,4.2s3.1,1.8,4.7,2.2c1.6,0.4,3.3,0.8,5.1,1h22.2c3-0.7,5.8-2.8,8.4-6
					c2.6-3.2,4.9-7.6,7-13.2c4.6,11.7,10.6,18.2,17.8,19.3h272.6l34,34l34-34h54.4c7.1,0,12.7-0.5,16.9-1.5
					c4.7-1.2,8.1-3.8,10.1-7.6c2-3.9,3.1-9.6,3.1-17.3v-94.5h-24.4v86.2H1415.3z M1281.3,551.6l17.8-17.8l22.1,22.1l22.1-22.1
					l17.8,17.8l-39.9,39.9L1281.3,551.6z"/>
				<rect x="1461.1" y="466.8" class="st4" width="24.8" height="120.9"/>
				
					<rect x="1295.4" y="470.8" transform="matrix(0.7071 -0.7071 0.7071 0.7071 42.4536 1063.6477)" class="st4" width="19.6" height="19.6"/>
				
					<rect x="1327.6" y="470.8" transform="matrix(0.7071 -0.7071 0.7071 0.7071 51.8909 1086.41)" class="st4" width="19.6" height="19.6"/>
				
					<rect x="1585.1" y="470.8" transform="matrix(0.7071 -0.7071 0.7071 0.7071 127.3064 1268.4922)" class="st4" width="19.6" height="19.6"/>
				
					<rect x="871.8" y="598" transform="matrix(0.7071 -0.7071 0.7071 0.7071 -171.5732 801.4017)" class="st4" width="19.6" height="19.6"/>
			</g>
			<path class="st4" d="M1795.8,496.5H1735c-11.2,0-20.4,9.1-20.4,20.4v39.6c0,4.4-3.5,7.9-7.9,7.9h-61.6v-67.8h-24.7V587
				c0,6.4-2.6,10.2-7.7,11.5h-36.4c-5.2-1.2-7.8-5-7.8-11.5v-90.4h-24.8V602c0,10.9,8.8,19.7,19.7,19.7h51.6c6.8,0,12.5-0.5,17-1.4
				c4.6-1.2,8-3.7,10.1-7.5c2.1-3.9,3.1-9.8,3.1-17.5v-7.6c32.1,0,23,0,55,0c2.8,0,5.1,0,6.9,0c2.4,0,3.8-0.2,4.4-0.3
				c1.4-0.3,2.9-0.6,4.3-1.1s2.7-1.2,4.1-2.3c1.3-1,2.5-2.4,3.6-4.2c1.1-1.7,2.2-4,3.2-6.7c2.5,8.4,10.2,14.6,19.4,14.6h49.8
				c11.2,0,20.4-9.1,20.4-20.4v-50.4C1816.2,505.6,1807.1,496.5,1795.8,496.5z M1791.4,555.8c0,4.7-3.8,8.5-8.5,8.5H1748
				c-4.7,0-8.5-3.8-8.5-8.5v-27.4c0-4.7,3.8-8.5,8.5-8.5h34.9c4.7,0,8.5,3.8,8.5,8.5V555.8z"/>
		</g>
	</g>
</g>
</svg>
