<svg width="85" height="101" viewBox="0 0 85 101" fill="none" xmlns="http://www.w3.org/2000/svg">
<g clip-path="url(#clip0_2113_2771)">
<path d="M22.4758 55.0225L22.7835 52.7346L23.2691 49.1191L22.7785 52.7575L22.472 55.025C22.472 55.025 22.4733 55.0238 22.4746 55.0238L22.4758 55.0225Z" fill="#AF9874"/>
<path d="M42.5012 11.3545C40.4178 12.7824 36.7391 15.3892 32.5761 18.715C26.7623 23.3569 21.8238 27.9263 17.8979 32.2964C14.885 35.6489 12.4889 38.8743 10.7637 41.894C10.77 41.9041 10.7763 41.9168 10.7839 41.927C10.9503 42.2166 11.1218 42.5088 11.2997 42.8023C11.364 42.7006 11.4321 42.599 11.5002 42.4974C20.439 28.9884 38.2222 16.2848 43.9225 12.4102C43.9389 12.3975 43.9578 12.3873 43.9742 12.3771C43.7068 12.1891 43.4508 12.01 43.2062 11.841C42.959 11.6695 42.7232 11.5069 42.4999 11.3545H42.5012Z" fill="#AF9874"/>
<path d="M62.5443 55.0225L61.7271 49.0874L61.7044 48.9197L61.6136 48.2566L61.5052 47.4448L60.862 42.6594L60.6942 41.4094L59.8606 35.2024L54.6421 44.0784V44.9168C54.6421 46.1885 54.4782 47.4194 54.173 48.5856L53.1805 48.1931C53.4428 47.1501 53.5853 46.0525 53.5853 44.9168V36.3432L51.2724 33.4912H45.6061L42.5227 36.8983L39.4392 33.4912H33.7742L31.4588 36.347V44.9168C31.4588 46.0487 31.5975 47.145 31.856 48.1855L30.8661 48.578C30.5659 47.4131 30.402 46.1859 30.402 44.9168V44.1597L25.1368 35.2024L24.3031 41.4094L24.1342 42.6594L23.4872 47.4753L23.3775 48.3062L23.3106 48.8067L23.269 49.1179L22.7835 52.7334L22.4758 55.0213C22.4758 55.0213 22.4745 55.0213 22.4733 55.0225L22.4089 55.5002C23.2728 55.3249 24.1329 55.1674 24.9905 55.0213C27.9188 54.5233 30.8043 54.1816 33.6241 53.9669C33.5964 53.9364 33.5712 53.9046 33.546 53.8729C33.4842 53.7979 33.4236 53.7242 33.3631 53.648C33.3303 53.6074 33.2988 53.568 33.266 53.5248C33.2357 53.4854 33.2042 53.4422 33.1739 53.4016C33.1348 53.352 33.097 53.2999 33.0604 53.2479C33.0201 53.1932 32.9784 53.1373 32.9406 53.0827C32.8486 52.9531 32.759 52.821 32.6733 52.6876C32.6253 52.6178 32.5812 52.5466 32.5358 52.4767C32.474 52.3777 32.4135 52.2798 32.3542 52.1795C32.2949 52.0804 32.2369 51.98 32.1802 51.8784C32.1587 51.8403 32.1398 51.8022 32.1184 51.7653C32.1184 51.7641 32.1171 51.7641 32.1171 51.7628C31.991 51.5291 31.8699 51.2902 31.7564 51.0476C31.7173 50.9676 31.6795 50.8863 31.6429 50.805H31.6442L32.6947 50.5598C32.894 50.9828 33.1109 51.3906 33.3492 51.7831C33.4123 51.886 33.4753 51.9877 33.5422 52.088C33.6935 52.3192 33.8511 52.5453 34.0176 52.7664C34.063 52.8274 34.1084 52.8883 34.1563 52.9468C34.2194 53.0294 34.2862 53.1107 34.3531 53.192C34.3972 53.2466 34.4426 53.2999 34.4905 53.3533C34.5448 53.4181 34.6003 53.4841 34.6608 53.5477C34.715 53.6099 34.7705 53.6722 34.8298 53.7331C34.855 53.7636 34.884 53.7928 34.9143 53.8208C34.9307 53.8386 34.9496 53.8576 34.966 53.8754C35.0026 53.9148 35.0404 53.9529 35.0795 53.9897C35.0883 54.0024 35.0997 54.0113 35.1098 54.0215L35.1375 54.0495C35.1942 54.1053 35.2523 54.1625 35.3115 54.2184C35.3292 54.2362 35.3494 54.2552 35.3683 54.2718C35.4162 54.3188 35.4654 54.3632 35.5133 54.4052C35.5549 54.4445 35.5991 54.4839 35.6432 54.5208C35.7063 54.5779 35.7693 54.6338 35.8349 54.6859C35.8942 54.7354 35.9547 54.7863 36.014 54.8333C36.1779 54.9667 36.3469 55.095 36.5197 55.2156C36.6017 55.2754 36.6836 55.3325 36.7669 55.3871C36.8514 55.4443 36.9359 55.5002 37.0216 55.5548C37.4037 55.7975 37.7997 56.0185 38.2083 56.2103C38.7822 56.4784 39.3787 56.6931 39.9954 56.8506C40.6121 57.0081 41.2502 57.1085 41.9034 57.1466L41.7118 55.5561L41.4911 53.7369V53.7306L41.4848 53.6861L40.9879 49.5562L42.5214 48.9782L44.0284 49.5333L43.5379 53.7115C43.7308 53.7166 43.9225 53.7204 44.1142 53.7268C44.0297 53.7255 43.944 53.7242 43.8582 53.7242C43.751 53.7242 43.6438 53.723 43.5366 53.723L43.3222 55.5561L43.1368 57.1428C44.4282 57.064 45.6591 56.7401 46.7966 56.2116C47.2065 56.0198 47.6025 55.8 47.9859 55.5561H47.9871C48.0767 55.5002 48.1637 55.443 48.2494 55.3846C48.3213 55.3376 48.3945 55.2868 48.4651 55.236C48.4853 55.2233 48.5042 55.2106 48.5244 55.1953C48.6038 55.1394 48.6833 55.0797 48.7615 55.02C48.8434 54.959 48.9229 54.8968 49.0023 54.8333C49.0149 54.8244 49.0276 54.8129 49.0402 54.8028C49.1095 54.7482 49.1776 54.6923 49.2432 54.6351C49.2672 54.6148 49.2899 54.5957 49.3126 54.5741C49.4526 54.4534 49.59 54.3289 49.725 54.2019C49.7792 54.1485 49.8334 54.0965 49.8864 54.0444C49.9091 54.0228 49.9305 54.0024 49.9532 53.9796H49.9545C49.9545 53.9796 49.9684 53.9656 49.9721 53.9593H49.9734C50.0289 53.9046 50.0819 53.85 50.1348 53.7941C50.1979 53.7293 50.2597 53.6633 50.3202 53.5959C50.4716 53.4308 50.6178 53.2606 50.7591 53.084C50.9003 52.9087 51.0378 52.7283 51.1715 52.5441C51.3026 52.3599 51.4313 52.1719 51.5549 51.9788C51.6784 51.7857 51.7957 51.5888 51.9092 51.388C51.9471 51.3207 51.9849 51.2547 52.0215 51.1861C52.1312 50.9828 52.2359 50.7757 52.3342 50.5649H52.3355L53.3898 50.81C53.275 51.0654 53.1527 51.3156 53.0253 51.5608C52.9572 51.6904 52.8891 51.8162 52.8185 51.9407C52.7403 52.0779 52.6621 52.2125 52.5802 52.3446C52.5511 52.3929 52.5171 52.445 52.4805 52.4983C52.1299 53.0497 51.744 53.5756 51.3228 54.0622C51.3178 54.0672 51.314 54.0723 51.3089 54.0774C51.3064 54.0799 51.3026 54.0838 51.3014 54.0863H51.3001C51.2774 54.1117 51.2547 54.1384 51.232 54.1625C55.4164 54.5563 59.2616 55.1572 62.654 55.8305L62.649 55.7975L62.5418 55.0238L62.5443 55.0225ZM44.6414 40.0221L51.1009 40.9355H51.0933L44.6414 42.0801V40.0221ZM40.3787 40.0221V42.0801L33.9268 40.9368H33.9192L40.3787 40.0221ZM56.1391 50.4365L56.0974 50.4277L55.7027 50.3349L55.4089 50.2676L55.1844 50.2142L54.859 50.1393L54.7329 50.1088L54.7203 50.1063L54.7001 50.1012L54.1692 49.9779L53.7681 49.8852L52.729 49.6451L42.5113 47.2759L32.3126 49.64L31.3718 49.8573L31.2747 49.8801L31.0855 49.9246L30.9392 49.9576L30.2494 50.1177L29.8332 50.2155L29.5469 50.2828L29.3174 50.3349L28.881 50.4365L28.8583 50.4429L28.8092 50.4531L28.7108 50.4759L28.8041 50.4391L28.8407 50.4238L28.871 50.4111L29.2304 50.2701L29.4485 50.1837L30.0703 49.9373L30.5823 49.7353L30.6794 49.6959L31.0048 49.5664L31.1435 49.5117L32.1284 49.1217L33.1424 48.7203L42.5113 45.0083L52.9144 49.1293L53.8968 49.5193L54.4214 49.7264L54.7745 49.8662L54.8035 49.8789L55.0293 49.9691L55.3193 50.0847L55.5161 50.1621L55.7922 50.2714L56.1252 50.4022L56.1529 50.4124L56.3118 50.4759L56.1428 50.4365H56.1391Z" fill="white"/>
<path d="M50.522 23.0029C50.4905 22.966 50.459 22.9317 50.4275 22.8962C50.3909 22.8555 50.3556 22.8161 50.319 22.7755C50.3165 22.7717 50.3127 22.7691 50.3102 22.7666C50.4199 22.886 50.5271 23.008 50.633 23.1312C50.5965 23.088 50.5599 23.0448 50.5233 23.0029H50.522Z" fill="#D1B686"/>
<path d="M50.1146 22.563C50.0819 22.5287 50.0478 22.4969 50.015 22.4639C50.102 22.5515 50.1891 22.6392 50.2735 22.7306C50.2206 22.6747 50.1676 22.6176 50.1146 22.563Z" fill="#D1B686"/>
<path d="M49.8498 22.3007C49.793 22.246 49.7363 22.1914 49.6795 22.1381C49.6518 22.1126 49.6253 22.0885 49.5976 22.0631C49.5875 22.0529 49.5761 22.044 49.566 22.0352C49.6682 22.1266 49.7678 22.2219 49.8662 22.3172C49.8599 22.3121 49.8548 22.3057 49.8498 22.3007Z" fill="#D1B686"/>
<path d="M11.5014 42.4978C11.4333 42.5994 11.3652 42.701 11.3009 42.8027C12.9757 45.5606 15.189 48.4786 17.9004 51.4957C18.9837 52.6988 20.1477 53.9259 21.3899 55.1645L22.1214 49.7109L22.2904 48.4609L23.1971 41.7152L23.3661 40.4652L24.3132 33.3995L28.166 28.4412H26.6917C26.2528 28.4412 25.8972 28.0855 25.8972 27.6435C25.8972 27.2014 26.2528 26.8457 26.6917 26.8457H30.3162L31.972 25.1942H30.272C29.8357 25.1942 29.4801 24.836 29.4801 24.3951C29.4801 23.9543 29.8357 23.5961 30.272 23.5961H32.6644C33.7174 22.045 35.0732 20.7505 36.6382 19.8142C38.3748 18.7776 40.3699 18.1856 42.4899 18.1856C44.6098 18.1856 46.6087 18.7789 48.3453 19.8155C49.9091 20.7505 51.261 22.0463 52.314 23.5961H54.7089C55.1453 23.5961 55.5009 23.9543 55.5009 24.3951C55.5009 24.836 55.1453 25.1942 54.7089 25.1942H52.8916L54.3217 26.8457H58.2905C58.7294 26.8457 59.085 27.2014 59.085 27.6435C59.085 28.0855 58.7294 28.4412 58.2905 28.4412H56.8301L60.6841 33.3995L61.6312 40.4652L61.8002 41.7152L62.7019 48.4342L62.8709 49.6829L63.5696 54.88L63.6074 55.162C63.702 55.0693 63.7979 54.974 63.8912 54.88C65.0262 53.7392 66.0956 52.6086 67.0995 51.4894C70.1111 48.1382 72.5085 44.9127 74.2337 41.8931C72.5085 38.8696 70.1098 35.6416 67.097 32.2892C64.3439 29.2238 61.0536 26.025 57.3207 22.7843C52.193 18.3317 47.2607 14.6832 43.9729 12.375C43.9565 12.3852 43.9376 12.3966 43.9212 12.408C38.2209 16.2826 20.4378 28.9862 11.4989 42.4952L11.5014 42.4978Z" fill="#D1B686"/>
<path d="M49.0149 21.5656C48.9178 21.4894 48.8207 21.4131 48.7223 21.3407L48.7173 21.3369C48.8396 21.4271 48.9594 21.5211 49.078 21.6164C49.0578 21.5999 49.0364 21.5821 49.0162 21.5656H49.0149Z" fill="#D1B686"/>
<path d="M33.9722 23.594H51.0075C50.9608 23.533 50.9142 23.472 50.8637 23.4136C50.8536 23.3996 50.8423 23.3882 50.8322 23.3742C50.7994 23.3336 50.7653 23.2916 50.73 23.251C50.8234 23.364 50.9167 23.4771 51.0062 23.594H33.9722Z" fill="#D1B686"/>
<path d="M49.4399 21.9214C49.3731 21.8642 49.3075 21.8057 49.2407 21.7499C49.2318 21.7422 49.223 21.7359 49.2154 21.7283C49.1953 21.7117 49.1751 21.6952 49.1549 21.6787C49.2659 21.7702 49.3756 21.8642 49.4841 21.9595C49.4702 21.9468 49.4551 21.9328 49.4412 21.9214H49.4399Z" fill="#D1B686"/>
<path d="M36.9221 20.885C36.8893 20.9065 36.8565 20.9281 36.825 20.9497C36.9296 20.8811 37.0356 20.8138 37.1428 20.749C37.0683 20.7935 36.9952 20.8392 36.9221 20.8862V20.885Z" fill="#D1B686"/>
<path d="M36.2082 21.3794C36.1527 21.42 36.096 21.4632 36.0418 21.5064C36.0392 21.509 36.0342 21.5128 36.0317 21.5141C35.9989 21.5395 35.9661 21.5661 35.9346 21.5928C36.0279 21.5179 36.1225 21.4442 36.2183 21.373C36.2158 21.3756 36.212 21.3769 36.2095 21.3794H36.2082Z" fill="#D1B686"/>
<path d="M36.4226 21.2228C36.3999 21.238 36.3772 21.2558 36.3545 21.2723C36.4491 21.2037 36.5449 21.1364 36.642 21.0703C36.5676 21.1199 36.4945 21.1707 36.4226 21.2228Z" fill="#D1B686"/>
<path d="M42.6703 19.25C42.6324 19.25 42.5946 19.25 42.5568 19.25C42.6249 19.25 42.6917 19.2513 42.7598 19.2538C42.7295 19.2538 42.6993 19.2525 42.6703 19.2513V19.25Z" fill="#D1B686"/>
<path d="M34.9143 22.5141C34.8664 22.5624 34.8197 22.6119 34.7731 22.6602C34.763 22.6716 34.7529 22.6831 34.7428 22.6932C34.8273 22.603 34.9131 22.5154 35.0001 22.4277C34.9711 22.4557 34.9433 22.4849 34.9156 22.5129L34.9143 22.5141Z" fill="#D1B686"/>
<path d="M35.6571 21.8216C35.6092 21.8623 35.56 21.9055 35.5121 21.9487C35.6004 21.8712 35.6899 21.795 35.7807 21.7188C35.7391 21.753 35.6975 21.7873 35.6571 21.8216Z" fill="#D1B686"/>
<path d="M34.4969 22.9606C34.4553 23.0089 34.4124 23.0559 34.372 23.1054L34.3695 23.108C34.4389 23.0267 34.5095 22.9479 34.5801 22.8691C34.5524 22.8996 34.5246 22.9288 34.4969 22.9593V22.9606Z" fill="#D1B686"/>
<path d="M43.0952 19.2667C43.0536 19.2642 43.0094 19.2616 42.9665 19.2591C42.9539 19.2591 42.9438 19.2578 42.9312 19.2578C42.9186 19.2578 42.906 19.2578 42.8947 19.2578C42.9653 19.2604 43.0359 19.2642 43.1078 19.2692C43.104 19.2692 43.099 19.2692 43.0952 19.2692V19.2667Z" fill="#D1B686"/>
<path d="M35.2535 22.1812C35.2056 22.2257 35.1602 22.2714 35.1135 22.3159C35.2068 22.2244 35.3027 22.1355 35.3985 22.0479C35.3506 22.0923 35.3014 22.1355 35.2535 22.1812Z" fill="#D1B686"/>
<path d="M48.4777 21.1643C48.4525 21.1478 48.426 21.1287 48.402 21.1122C48.3806 21.0983 48.3604 21.0843 48.339 21.0703C48.4399 21.1389 48.5408 21.2088 48.6404 21.2812C48.5862 21.2418 48.5319 21.2024 48.4777 21.1643Z" fill="#D1B686"/>
<path d="M47.0711 20.3293C47.0507 20.3191 47.0315 20.3088 47.0111 20.2998C47.0111 20.2998 47.0098 20.2998 47.0085 20.2998C47.0353 20.3126 47.0621 20.3255 47.0889 20.3396C47.0826 20.337 47.0774 20.3332 47.0711 20.3306V20.3293Z" fill="#D1B686"/>
<path d="M46.8421 20.2182C46.8067 20.2029 46.7714 20.1864 46.7336 20.1699C46.7336 20.1699 46.7323 20.1699 46.7311 20.1699C46.7752 20.1902 46.8194 20.2093 46.8635 20.2296C46.8559 20.2258 46.8496 20.2233 46.8421 20.2195V20.2182Z" fill="#D1B686"/>
<path d="M46.3716 20.0123C46.3565 20.006 46.3413 19.9996 46.3275 19.9945C46.3224 19.9933 46.3174 19.9895 46.3123 19.9882C46.3086 19.9869 46.306 19.9856 46.3022 19.9844C46.3325 19.9971 46.3628 20.0098 46.3943 20.0225C46.3867 20.0199 46.3792 20.0161 46.3716 20.0123Z" fill="#D1B686"/>
<path d="M43.4484 19.2917C43.4395 19.2904 43.4307 19.2904 43.4206 19.2904C43.379 19.2854 43.3361 19.2828 43.2958 19.2803C43.2933 19.2803 43.2907 19.2803 43.2882 19.2803C43.3601 19.2854 43.432 19.2917 43.5039 19.2993C43.4849 19.2981 43.466 19.2955 43.4471 19.293L43.4484 19.2917Z" fill="#D1B686"/>
<path d="M48.117 20.9235C48.069 20.8917 48.0173 20.8599 47.9682 20.8294C47.9606 20.8244 47.9543 20.8206 47.9467 20.8155C47.9379 20.8091 47.9291 20.8053 47.919 20.799C47.9101 20.7926 47.9013 20.7888 47.8912 20.7824L47.8685 20.7685C47.8685 20.7685 47.861 20.7634 47.8584 20.7621C47.8534 20.7583 47.8471 20.7558 47.842 20.752C47.9555 20.8206 48.0678 20.8917 48.1788 20.9641C48.1586 20.9501 48.1371 20.9362 48.117 20.9235Z" fill="#D1B686"/>
<path d="M43.7351 19.3254C43.7198 19.3229 43.7045 19.3216 43.6892 19.3203C43.7096 19.3229 43.73 19.3254 43.7517 19.328C43.7466 19.328 43.7415 19.3267 43.7351 19.3254Z" fill="#D1B686"/>
<path d="M45.108 19.5897C45.0828 19.5833 45.0576 19.577 45.0323 19.5693C45.0714 19.5795 45.1105 19.5897 45.1496 19.5998C45.1358 19.596 45.1232 19.5922 45.1093 19.5884L45.108 19.5897Z" fill="#D1B686"/>
<path d="M44.4282 19.4345C44.4219 19.4332 44.4156 19.4319 44.4093 19.4307C44.4396 19.4357 44.4686 19.4421 44.4988 19.4484C44.4749 19.4434 44.4522 19.4383 44.4282 19.4345Z" fill="#D1B686"/>
<path d="M44.77 19.5052C44.7499 19.5001 44.7284 19.4963 44.7083 19.4912C44.7637 19.5039 44.8205 19.5166 44.876 19.5293C44.8407 19.5204 44.8041 19.5115 44.77 19.5039V19.5052Z" fill="#D1B686"/>
<path d="M34.2535 23.2425C34.2535 23.2425 34.2484 23.2476 34.2472 23.2501C34.2333 23.2654 34.222 23.2793 34.2106 23.2946C34.1702 23.3429 34.1286 23.3937 34.0895 23.4432C34.0567 23.4826 34.024 23.5245 33.9924 23.5664C34.0845 23.447 34.1791 23.3302 34.2762 23.2158C34.2686 23.2247 34.261 23.2336 34.2535 23.2425Z" fill="#D1B686"/>
<path d="M36.5979 11.3767L40.143 9.13574L36.41 6.89355L36.5979 11.3767Z" fill="#6CAA21"/>
<path d="M31.5206 15.4207L34.7302 12.7148L30.7299 11.0049L31.5206 15.4207Z" fill="#6CAA21"/>
<path d="M26.0839 20.2302L29.214 17.4316L25.1646 15.8398L26.0839 20.2302Z" fill="#6CAA21"/>
<path d="M20.685 25.3039L23.5642 22.2436L19.3949 21.0088L20.685 25.3039Z" fill="#6CAA21"/>
<path d="M10.3929 30.6855L11.6843 34.9806L14.5635 31.9203L10.3929 30.6855Z" fill="#6CAA21"/>
<path d="M16.0112 30.3143L18.8904 27.2553L14.7198 26.0205L16.0112 30.3143Z" fill="#6CAA21"/>
<path d="M10.7195 36.5872L6.40271 36.0791L8.39403 40.0922L10.7195 36.5872Z" fill="#6CAA21"/>
<path d="M7.00549 48.6422L11.4409 48.2407L9.05104 44.7803L7.00549 48.6422Z" fill="#6CAA21"/>
<path d="M11.7638 55.0905L16.1046 54.0856L13.2708 50.9834L11.7638 55.0905Z" fill="#6CAA21"/>
<path d="M69.2169 53.7205L73.3875 54.9552L72.0961 50.6602L69.2169 53.7205Z" fill="#6CAA21"/>
<path d="M73.7683 48.667L78.0851 49.1752L76.0938 45.1621L73.7683 48.667Z" fill="#6CAA21"/>
<path d="M74.1025 37.0406L76.4772 40.5112L76.5416 40.3918L78.5404 36.6582L74.3358 37.0203L74.1025 37.0406Z" fill="#6CAA21"/>
<path d="M74.4872 30.6914L70.1376 31.6607L72.9474 34.7858L74.4872 30.6914Z" fill="#6CAA21"/>
<path d="M65.1536 26.3776L68.0529 29.4188L69.4717 25.2812L65.1536 26.3776Z" fill="#6CAA21"/>
<path d="M63.0563 23.9213L64.117 19.6758L59.9086 21.143L63.0563 23.9213Z" fill="#6CAA21"/>
<path d="M52.599 14.9925L53.6445 10.7432L49.4412 12.2257L52.599 14.9925Z" fill="#6CAA21"/>
<path d="M48.0982 11.1026L48.4172 6.73633L44.5216 8.91246L48.0982 11.1026Z" fill="#6CAA21"/>
<path d="M57.5755 19.4437L58.6209 15.1943L54.4176 16.6781L57.5755 19.4437Z" fill="#6CAA21"/>
<path d="M42.5189 2.80664C41.2502 2.80664 40.2186 3.93218 40.2186 5.31433C40.2186 6.69648 41.2502 7.82202 42.5189 7.82202C43.7876 7.82202 44.8192 6.69775 44.8192 5.31433C44.8192 3.93091 43.7876 2.80664 42.5189 2.80664ZM42.5189 7.06108C41.6664 7.06108 40.9728 6.27726 40.9728 5.31306C40.9728 4.76045 41.2023 4.26501 41.5592 3.94615C41.4861 4.12909 41.4444 4.33615 41.4444 4.55466C41.4444 5.31052 41.9338 5.9241 42.5378 5.9241C43.1419 5.9241 43.6312 5.31179 43.6312 4.55466C43.6312 4.35775 43.5972 4.17228 43.5379 4.00332H43.5392C43.8595 4.32472 44.0638 4.79348 44.0638 5.31306C44.0638 6.27599 43.3702 7.06108 42.5177 7.06108H42.5189Z" fill="#BE3D1E"/>
<path d="M4.84017 39.5049C3.46807 39.5049 2.35071 40.544 2.35071 41.822C2.35071 43.1 3.46681 44.1392 4.84017 44.1392C6.21354 44.1392 7.32964 43.1 7.32964 41.822C7.32964 40.544 6.21228 39.5049 4.84017 39.5049ZM4.84017 43.3795C4.28906 43.3795 3.79974 43.1483 3.48068 42.7888C3.66354 42.8612 3.86784 42.9044 4.08602 42.9044C4.83639 42.9044 5.44552 42.4115 5.44552 41.803C5.44552 41.1945 4.83765 40.7016 4.08602 40.7016C3.89181 40.7016 3.70768 40.7346 3.53995 40.7943C3.85523 40.4704 4.32185 40.2646 4.83891 40.2646C5.79485 40.2646 6.57422 40.9633 6.57422 41.822C6.57422 42.6808 5.79611 43.3795 4.83891 43.3795H4.84017Z" fill="#BE3D1E"/>
<path d="M81.5924 40.5707C81.1056 40.1616 80.475 39.952 79.818 39.9812C79.1596 40.0092 78.5493 40.2734 78.1003 40.7218C77.6413 41.1817 77.4029 41.78 77.4306 42.4038C77.4836 43.6437 78.5783 44.6129 79.8987 44.6129C79.9378 44.6129 79.9769 44.6129 80.0147 44.6117C81.3855 44.552 82.4588 43.4658 82.4045 42.1878C82.3768 41.5628 82.0892 40.9886 81.5924 40.5707ZM81.2632 43.2638H81.2619C80.9593 43.6043 80.5015 43.8304 79.9832 43.852C79.0285 43.899 78.2201 43.2295 78.1835 42.372C78.1671 41.9617 78.3248 41.5679 78.6312 41.2617C78.7901 41.1042 78.9768 40.9772 79.1836 40.8895C79.3904 40.8019 79.6149 40.7498 79.8507 40.7409C79.8798 40.7396 79.9075 40.7396 79.9365 40.7396C80.3741 40.7396 80.7878 40.8857 81.1081 41.1563C81.1535 41.1944 81.1951 41.2325 81.2342 41.2732C81.0476 41.2071 80.8395 41.1728 80.6213 41.1817C79.8709 41.2147 79.2845 41.733 79.311 42.3415C79.3375 42.95 79.9655 43.4163 80.7159 43.3832C80.9126 43.3743 81.0967 43.3324 81.2632 43.2638Z" fill="#BE3D1E"/>
<path d="M51.0063 23.594C50.9167 23.4771 50.8234 23.364 50.7301 23.251C50.7149 23.2332 50.7011 23.2154 50.6859 23.1976C50.6847 23.1951 50.6821 23.1912 50.6796 23.1887C50.6695 23.1735 50.6557 23.1608 50.6431 23.1455C50.6393 23.1417 50.6355 23.1366 50.633 23.1328C50.527 23.0096 50.4198 22.8876 50.3101 22.7682C50.2988 22.7555 50.2862 22.7441 50.2748 22.7314C50.1903 22.6412 50.1033 22.5523 50.0163 22.4646C49.9671 22.4151 49.9179 22.3655 49.8687 22.3172C49.7704 22.222 49.6695 22.1267 49.5686 22.0352C49.5408 22.0098 49.5131 21.9857 49.4853 21.9603C49.3769 21.865 49.2672 21.771 49.1562 21.6795C49.131 21.6579 49.1045 21.6376 49.0793 21.6173C48.9607 21.522 48.8409 21.428 48.7186 21.3378C48.6934 21.3187 48.6681 21.3009 48.6429 21.2832C48.5433 21.2108 48.4424 21.1409 48.3415 21.0723C48.2885 21.0367 48.2343 21.0011 48.1813 20.9656C48.0704 20.8932 47.9581 20.822 47.8446 20.7534C47.832 20.7458 47.8206 20.7382 47.8068 20.7318C47.7071 20.6721 47.6075 20.615 47.5066 20.5591C47.4272 20.5146 47.3465 20.4714 47.2658 20.4295C47.2494 20.4219 47.2342 20.413 47.2178 20.4041C47.2027 20.3952 47.1863 20.3876 47.1699 20.3799C47.1434 20.366 47.1169 20.3533 47.0905 20.3406C47.064 20.3279 47.0375 20.3139 47.011 20.3012C46.9631 20.2783 46.9152 20.2542 46.866 20.2313C46.8218 20.211 46.7777 20.1907 46.7336 20.1716C46.6226 20.1208 46.5103 20.0712 46.3968 20.0255C46.3666 20.0128 46.3363 20.0001 46.3048 19.9874C46.2493 19.9645 46.1951 19.9442 46.1396 19.9239C46.1143 19.9137 46.0879 19.9036 46.0626 19.8947C45.9983 19.8693 45.9315 19.8464 45.8659 19.8235C45.8659 19.8235 45.8651 19.8231 45.8634 19.8223C45.8634 19.8223 45.8609 19.821 45.8583 19.821C45.7751 19.7918 45.6919 19.7651 45.6074 19.7371C45.4977 19.7016 45.3867 19.6673 45.2757 19.6368C45.2341 19.6241 45.1912 19.6126 45.1483 19.6025C45.1092 19.5923 45.0701 19.5822 45.031 19.572C44.9995 19.5644 44.9692 19.5555 44.9377 19.5479C44.9175 19.5428 44.8961 19.5377 44.8747 19.5326C44.8192 19.5186 44.7624 19.5072 44.7069 19.4945C44.6603 19.4843 44.6149 19.4729 44.5682 19.464C44.5455 19.4589 44.5215 19.4551 44.4988 19.45C44.4686 19.4437 44.4396 19.4386 44.4093 19.4323C44.3589 19.4221 44.3071 19.4119 44.2567 19.4043C44.089 19.3751 43.92 19.3497 43.751 19.3293C43.7308 19.3268 43.7106 19.3243 43.6892 19.3217C43.6463 19.3166 43.6034 19.3116 43.5593 19.3065C43.5404 19.3039 43.5227 19.3027 43.5038 19.3001C43.4319 19.2925 43.36 19.2874 43.2882 19.2811C43.2289 19.276 43.1684 19.2722 43.1078 19.2684C43.0372 19.2646 42.9666 19.2595 42.8947 19.2569C42.8732 19.2569 42.8518 19.2544 42.8291 19.2544C42.8064 19.2531 42.7824 19.2531 42.7597 19.2519C42.6916 19.2506 42.6248 19.2493 42.5567 19.248C42.5353 19.248 42.5126 19.248 42.4899 19.248C40.5666 19.248 38.7607 19.7829 37.1767 20.7267C37.1654 20.7331 37.154 20.7407 37.1427 20.7483C37.0355 20.8131 36.9296 20.8805 36.8249 20.9491C36.7732 20.9821 36.7215 21.0164 36.671 21.0507C36.6609 21.057 36.6521 21.0634 36.6433 21.0697C36.5462 21.1358 36.4503 21.2019 36.3557 21.2717C36.3431 21.2819 36.3293 21.2908 36.3166 21.2997C36.2851 21.3225 36.2536 21.3454 36.2233 21.3696L36.2195 21.3721C36.1237 21.4432 36.0291 21.5169 35.9358 21.5919C35.9118 21.6109 35.8879 21.63 35.8639 21.649C35.8362 21.6719 35.8084 21.6948 35.7807 21.7176C35.6899 21.7926 35.6003 21.8688 35.512 21.9476C35.4931 21.9653 35.473 21.9806 35.454 21.9984C35.4364 22.0149 35.4187 22.0314 35.3998 22.0479C35.3027 22.1356 35.2081 22.2245 35.1148 22.316C35.0959 22.3338 35.077 22.3515 35.0593 22.3693C35.0391 22.3884 35.0202 22.4087 35.0013 22.4278C34.9143 22.5141 34.8285 22.6031 34.744 22.6933C34.6898 22.7517 34.6356 22.8101 34.5826 22.8698C34.512 22.9486 34.4401 23.0274 34.372 23.1087C34.3417 23.1442 34.3102 23.1798 34.2799 23.2167C34.1841 23.3323 34.0882 23.4479 33.9962 23.5673C33.9886 23.5762 33.9823 23.5851 33.9747 23.594H51.0088H51.0063Z" fill="white"/>
<path d="M31.9733 25.1934L30.3162 26.8448H54.323L52.8929 25.1934H31.9733Z" fill="white"/>
<path d="M55.4908 28.4404H29.5078L25.4558 33.6578L30.402 42.0701V35.9673L33.2735 32.4268H39.9058L42.5239 35.3182L45.1395 32.4268H51.7755L54.5235 35.8161L54.6421 35.9635V41.9876L59.5428 33.6565L59.5403 33.654L55.4908 28.4404Z" fill="white"/>
<path d="M42.5189 7.06317C43.3714 7.06317 44.065 6.27935 44.065 5.31515C44.065 4.79557 43.8595 4.32554 43.5404 4.00668H43.5391C43.5984 4.1731 43.6325 4.35984 43.6325 4.55674C43.6325 5.31261 43.1431 5.92619 42.5391 5.92619C41.935 5.92619 41.4457 5.31388 41.4457 4.55674C41.4457 4.33824 41.4873 4.13117 41.5604 3.94824C41.2035 4.2671 40.974 4.76254 40.974 5.31515C40.974 6.27808 41.6676 7.06317 42.5201 7.06317H42.5189Z" fill="#FFB531"/>
<path d="M79.3122 42.3402C79.2857 41.733 79.8734 41.2134 80.6225 41.1804C80.8419 41.1715 81.0488 41.2045 81.2354 41.2718C81.1963 41.2312 81.1534 41.1931 81.1093 41.155C80.7877 40.8844 80.3741 40.7383 79.9377 40.7383C79.9087 40.7383 79.881 40.7383 79.852 40.7396C79.6161 40.7484 79.3917 40.8005 79.1848 40.8882C78.978 40.9758 78.7914 41.1029 78.6325 41.2604C78.326 41.5678 78.1684 41.9604 78.1848 42.3707C78.2213 43.2282 79.0297 43.8977 79.9844 43.8507C80.5027 43.8291 80.9605 43.6029 81.2632 43.2638H81.2644C81.2644 43.2638 81.2644 43.2625 81.2644 43.2612C81.098 43.3298 80.9138 43.3717 80.7171 43.3806C79.9667 43.4137 79.3387 42.9462 79.3122 42.3389V42.3402Z" fill="#FFB531"/>
<path d="M4.84017 40.2649C4.32311 40.2649 3.85649 40.4695 3.54121 40.7934C3.70894 40.735 3.89306 40.7007 4.08727 40.7007C4.83765 40.7007 5.44677 41.1936 5.44677 41.8021C5.44677 42.4106 4.83891 42.9035 4.08727 42.9035C3.8691 42.9035 3.66354 42.8603 3.48193 42.7866C3.79974 43.1474 4.29032 43.3786 4.84143 43.3786C5.79736 43.3786 6.57674 42.6799 6.57674 41.8211C6.57674 40.9624 5.79862 40.2637 4.84143 40.2637L4.84017 40.2649Z" fill="#FFB531"/>
<path d="M83.2558 40.4059C81.2317 36.3065 78.2642 32.0343 74.3888 27.6109C70.5134 23.1875 65.7274 18.6091 60.0561 13.9024C55.8742 10.4318 52.0076 7.5595 49.1486 5.52947C47.7172 4.51445 46.5393 3.70904 45.6969 3.14627C44.857 2.58223 44.3538 2.2621 44.2731 2.21002L42.4987 1.07812L40.7268 2.21002H40.7255C40.7255 2.21002 40.7154 2.21637 40.7079 2.22272C40.6335 2.26972 40.4254 2.40184 40.0987 2.6178C40.0281 2.66353 39.9525 2.71562 39.8692 2.77024C39.786 2.82487 39.6952 2.88458 39.6006 2.9481C39.5073 3.01034 39.4076 3.07767 39.3017 3.14754C36.7795 4.83712 31.2166 8.69902 24.9438 13.9024C19.2737 18.6091 14.4865 23.1875 10.6111 27.6109C6.73435 32.0343 3.76818 36.3052 1.74407 40.4059L1.01135 41.8948L1.74407 43.3824C3.76818 47.4831 6.73435 51.7541 10.6111 56.1787C11.1798 56.8279 11.7675 57.4796 12.3779 58.1364C14.5306 57.4288 16.6746 56.8203 18.8059 56.3007C19.4654 56.1394 20.1225 55.9882 20.7795 55.8434C19.5625 54.6264 18.372 53.3801 17.2295 52.1098C14.7665 49.3658 12.5355 46.5164 10.7599 43.6555C10.5783 43.3659 10.4017 43.0737 10.2315 42.7828C10.0562 42.4881 9.88717 42.1921 9.72448 41.8948C11.63 38.4496 14.257 34.9904 17.2282 31.6862C21.8326 26.5603 27.2491 21.8066 32.0149 18.0006C36.4806 14.4322 40.3762 11.6958 42.5025 10.2527C45.3816 12.2078 51.5145 16.5371 57.9147 22.0962C59.1165 23.1405 60.3298 24.2279 61.5303 25.3496C62.0007 25.7892 62.4686 26.2338 62.9327 26.6822C62.939 26.6873 62.9453 26.6924 62.9504 26.6988C64.6113 28.3032 66.2343 29.9699 67.7704 31.6798C70.7404 34.9853 73.3698 38.447 75.2754 41.8948C73.3711 45.3375 70.7429 48.7979 67.7729 52.1034C66.5761 53.436 65.3251 54.742 64.045 56.0136C64.0438 56.0149 64.0375 56.0212 64.0274 56.0339C64.0349 56.0352 64.0412 56.0365 64.0488 56.0403C64.1775 56.0695 64.3048 56.1 64.4335 56.1317C64.9543 56.255 65.4701 56.382 65.9809 56.5141C66.2873 56.5929 66.5912 56.6742 66.8952 56.7567C66.8964 56.7555 66.8964 56.7567 66.8977 56.7567C69.0454 57.2687 70.932 57.7857 72.511 58.257C73.1617 57.5596 73.786 56.8685 74.3888 56.18C78.2642 51.7553 81.2317 47.4857 83.2558 43.3837L83.9885 41.8961L83.2558 40.4072V40.4059ZM76.5415 40.392L76.4772 40.5114L74.1025 37.0395L74.3358 37.0192L78.5404 36.6571L76.5415 40.3907V40.392ZM74.4872 30.6915L72.9473 34.7859L70.1375 31.6608L74.4859 30.6915H74.4872ZM69.4729 25.2798L68.0529 29.4173L65.1536 26.3761L69.4729 25.2785V25.2798ZM64.1182 19.6749L63.0576 23.9205L59.9098 21.1422L64.1194 19.6749H64.1182ZM58.6222 15.1944L57.5767 19.4437L54.4188 16.6769L58.6222 15.1944ZM53.6458 10.743L52.6003 14.9924L49.4424 12.2255L53.6458 10.743ZM48.4171 6.73631L48.0981 11.1025L44.5215 8.91244L48.4171 6.73631ZM42.5188 2.80709C43.7875 2.80709 44.8191 3.93262 44.8191 5.31478C44.8191 6.69693 43.7875 7.82247 42.5188 7.82247C41.2502 7.82247 40.2186 6.6982 40.2186 5.31478C40.2186 3.93135 41.2502 2.80709 42.5188 2.80709ZM40.1429 9.13475L36.5979 11.3757L36.4087 6.89256L40.1416 9.13348L40.1429 9.13475ZM34.7301 12.7146L31.5206 15.4205L30.7298 11.0047L34.7314 12.7146H34.7301ZM29.2139 17.4302L26.0838 20.2288L25.1645 15.8384L29.2139 17.4302ZM23.5641 22.2423L20.6849 25.3026L19.3948 21.0088L23.5654 22.2436L23.5641 22.2423ZM18.8904 27.2539L16.0112 30.3142L14.7211 26.0204L18.8916 27.2552L18.8904 27.2539ZM14.5634 31.9187L11.6843 34.979L10.3941 30.6851L14.5647 31.9199L14.5634 31.9187ZM10.7195 36.586L8.39399 40.0909L6.40267 36.0778L10.7195 36.586ZM4.84014 44.1383C3.46803 44.1383 2.35067 43.0991 2.35067 41.8211C2.35067 40.5431 3.46677 39.504 4.84014 39.504C6.2135 39.504 7.3296 40.5431 7.3296 41.8211C7.3296 43.0991 6.21224 44.1383 4.84014 44.1383ZM7.00423 48.6417L9.04978 44.7785L11.4396 48.239L7.00297 48.6404L7.00423 48.6417ZM11.7625 55.0888L13.2695 50.9817L16.1033 54.0839L11.7625 55.0888ZM69.2157 53.7193L72.0948 50.659L73.3849 54.9528L69.2144 53.718L69.2157 53.7193ZM73.7671 48.6658L76.0926 45.1609L78.0839 49.174L73.7671 48.6658ZM80.0122 44.6108C79.9743 44.6121 79.9352 44.6121 79.8961 44.6121C78.5757 44.6121 77.4811 43.6428 77.4281 42.4029C77.4004 41.7779 77.6387 41.1809 78.0978 40.721C78.5467 40.2726 79.1584 40.0083 79.8154 39.9804C80.4712 39.9511 81.1018 40.1608 81.5898 40.5698C82.0867 40.9878 82.3743 41.562 82.402 42.187C82.4562 43.465 81.3843 44.5511 80.0122 44.6108Z" fill="#FFB531"/>
<path d="M32.5509 71.8077L33.4765 73.491H40.0571L40.4493 74.3955L40.6473 74.8515L40.7696 75.1361L40.9071 75.4511L40.9891 75.4067L41.2842 75.2441L41.3762 75.1945L42.7975 74.4132L42.399 73.4922H64.5444L64.9366 74.3967L65.1333 74.8528L65.3931 75.4511L65.4764 75.4067L65.8623 75.1945L65.9707 75.1348L67.2848 74.4132L66.8863 73.4922H72.9296L73.0532 72.2638L73.0999 71.8077L73.1453 71.3593H65.9619L63.1647 64.9008H71.4175L71.5424 63.6711L71.5891 63.215L71.6345 62.7666H62.2416L61.8494 61.8621L61.7851 61.7122L61.606 61.2955L61.2831 60.5498L60.8354 60.7963L59.3914 61.589L59.9009 62.7666H59.3309L59.1152 64.8995H60.8253L61.2163 65.804L61.4143 66.2601L63.6225 71.358H56.3244L52.1475 61.7122L51.9684 61.2955L51.6456 60.5498L50.9482 60.9322L49.7539 61.589L49.7829 61.6537L50.6064 63.5567L45.6451 71.358H41.4784L37.7076 62.651L37.5285 62.2343L37.2057 61.4886L35.314 62.5278L36.3166 64.8449L39.1377 71.358H32.3087L32.5546 71.8065L32.5509 71.8077ZM49.7678 68.5531L51.5523 65.7481L52.1778 67.1963L52.3909 67.6854L53.9825 71.3593H47.9833L49.7678 68.5531Z" fill="#FFB531"/>
<path d="M16.604 74.3961L16.5952 74.4127L17.3077 74.8522L17.3291 74.8674L17.6192 75.0453L17.7062 75.0999L18.275 75.4505L19.521 73.4916H27.8003L28.1925 74.3961L28.3905 74.8522L28.7663 75.7224L28.8495 75.6767L29.2354 75.4645L30.6567 74.6832L27.2731 66.868L25.0409 61.7141L24.8619 61.2975L24.539 60.5518L23.8416 60.9341L22.6486 61.5909L22.6763 61.6557L23.4998 63.5587L21.2538 67.0903L18.5398 71.36H15.0263L14.8107 73.4916H17.1816L16.6065 74.3961H16.604ZM22.6612 68.5538L24.4457 65.7488L25.0737 67.197L25.2843 67.6861L26.8759 71.36H20.8767L22.6612 68.5538Z" fill="#FFB531"/>
<path d="M15.8333 62.8748L15.88 62.4187L15.9065 62.1621H13.1345L12.9718 63.7615L12.9176 64.295H13.1648H13.6037H15.6896L15.8333 62.8748Z" fill="#FFB531"/>
<path d="M19.7744 64.295L19.8778 63.2788L19.9182 62.8748L19.9648 62.4187L19.9913 62.1621H17.2194L17.0024 64.295H17.2496H17.6885H19.7744Z" fill="#FFB531"/>
<path d="M71.8123 80.0696L71.6307 79.6529L71.3066 78.9072L70.8084 79.1816L69.4161 79.9464L75.2892 93.4529L75.3699 93.4084L75.7571 93.195L76.4545 92.8126L77.1796 92.4137L76.9211 91.8166L71.8123 80.0696Z" fill="#FFB531"/>
<path d="M66.0224 79.6526L65.6983 78.9082L65.2595 79.1496L63.8079 79.9474L67.9608 89.4801H62.7397L60.0182 83.1957L59.8278 82.7561L59.6487 82.3394L59.3246 81.5937L58.6877 81.9444L57.4342 82.6329L57.4417 82.6481H49.4878L49.3554 82.3394L49.0313 81.5937L48.6151 81.8237L47.1408 82.6342L50.107 89.4814H47.1207L46.2063 87.3688L46.0247 86.9521L45.7019 86.2064L44.756 86.7247L43.8115 87.2443L44.78 89.4814H40.7103L37.7984 82.7574L37.6168 82.3407L37.294 81.595L36.9244 81.7983L35.4035 82.6342L38.3697 89.4814H31.3414L30.0021 86.3855L28.4307 82.7574L28.2491 82.3407L27.9263 81.595L27.1583 82.018L26.0359 82.6354L29.002 89.4827H20.6118L17.6998 82.7587L17.5182 82.342L17.1954 81.5963L16.9721 81.7195L15.3049 82.6354L16.083 84.4317L18.2698 89.4827H16.4828L16.2672 91.6156H19.1942L19.5852 92.5201L19.7832 92.9762L20.212 93.9645L20.294 93.9188L20.5386 93.7854L20.6824 93.7066L22.1037 92.9254L21.9952 92.6751L21.5362 91.6169H29.9264L30.3111 92.5074L30.3187 92.5214L30.5154 92.9774L30.7903 93.6101L30.8723 93.5643L31.2595 93.3522L32.6807 92.5709L32.2671 91.6182H39.2954L39.6876 92.5227L39.8856 92.9787L39.9423 93.1121L40.0243 93.0664L40.4115 92.8529L41.3926 92.313L41.8327 92.0717L41.636 91.6169H46.142L46.533 92.5214L46.731 92.9774L46.7902 93.1108L46.8722 93.0651L47.2594 92.8517L48.6807 92.0704L48.5722 91.8176L48.4827 91.6156H51.0327L51.4236 92.5201L51.6204 92.9762L51.9646 93.7727L52.0479 93.7257L52.435 93.5135L53.8551 92.7335L53.3759 91.6169H61.3285L61.4534 91.904L61.7207 92.5214L61.9187 92.9774L61.9755 93.1108L62.0575 93.0651L62.4446 92.8517L63.8659 92.0704L63.8142 91.9497L63.6692 91.6156H68.7326L68.7629 91.3234L69.2799 92.5188L69.401 92.7983L69.4779 92.9749L69.686 93.4538L69.768 93.4094L70.1552 93.1972L71.217 92.6116L71.5764 92.4159L66.2078 80.0706L66.0262 79.6539L66.0224 79.6526ZM52.4464 89.4801L51.2332 86.6803L50.4109 84.7823H58.3649L58.7571 85.6868L58.9538 86.1429L59.7937 88.0815L60.4003 89.4814H52.4464V89.4801Z" fill="#FFB531"/>
<path d="M31.339 99.0587H31.5269H31.9658H34.1109L34.2207 97.9827L34.2661 97.5267L34.2736 97.4593L34.3279 96.9258H31.5546L31.339 99.0587Z" fill="#FFB531"/>
<path d="M21.3887 81.6154H21.8276H23.5351L23.66 80.3869L23.7067 79.9309L23.7521 79.4824H20.9801L20.7632 81.6154H21.3887Z" fill="#FFB531"/>
<path d="M35.5851 97.4593L35.4237 99.0587H35.6116H36.0505H38.1957L38.3041 97.9827L38.3508 97.5267L38.4113 96.9258H35.6394L35.5851 97.4593Z" fill="#FFB531"/>
<path d="M15.5673 98.5266H16.1928H28.4825L28.5064 98.2891L28.5556 97.6514H15.6404L15.5673 98.5266Z" fill="#FFB531"/>
<path d="M84.8007 41.4891L84.469 40.8158L84.0907 40.0485L84.0667 40.0002L83.6644 39.1847L83.6556 39.1897C81.6264 35.2948 78.7422 31.2017 75.0686 27.0095C71.1767 22.5658 66.3189 17.9214 60.6325 13.2007C57.1328 10.2954 53.444 7.46375 49.6707 4.78584C48.4651 3.93215 47.2973 3.12547 46.2014 2.38994C45.2782 1.77127 44.7624 1.44479 44.7574 1.44225L42.9855 0.311627L42.5012 0.00292969L42.0169 0.311627L40.2476 1.44098H40.2463L40.2413 1.44352C40.2022 1.46893 39.704 1.78652 38.8023 2.38994C36.0808 4.2129 30.5873 8.04177 24.3687 13.202C18.6836 17.9214 13.8257 22.5671 9.93386 27.0108C6.00419 31.4952 2.97622 35.8665 0.935716 40.0028L0.200479 41.4916L0.0012207 41.8969L0.200479 42.3021L0.935716 43.7897C2.97622 47.926 6.00419 52.2973 9.93386 56.783C10.4194 57.3381 10.9188 57.8932 11.4346 58.4547C11.7499 58.3455 12.0639 58.2401 12.3792 58.1372C11.7701 57.4804 11.1811 56.8287 10.6123 56.1795C6.73564 51.7549 3.76947 47.4852 1.74536 43.3832L1.01264 41.8956L1.74536 40.4067C3.76947 36.3073 6.73564 32.0351 10.6123 27.6117C14.4878 23.1883 19.2738 18.6099 24.9451 13.9032C31.2179 8.69855 36.7807 4.83792 39.303 3.14834C39.4089 3.07847 39.5086 3.01114 39.6019 2.94889C39.6965 2.88538 39.7873 2.82567 39.8705 2.77104C39.9537 2.71642 40.0294 2.66433 40.1 2.6186C40.4279 2.40264 40.636 2.27052 40.7092 2.22352C40.7167 2.21717 40.723 2.21463 40.7268 2.21082H40.7281L42.5 1.07892L44.2744 2.21082C44.3563 2.2629 44.8583 2.58303 45.6982 3.14707C46.5393 3.70984 47.7185 4.51525 49.1499 5.53027C52.0101 7.5603 55.8767 10.4326 60.0574 13.9032C65.7274 18.6099 70.5146 23.1883 74.3901 27.6117C78.2655 32.0351 81.233 36.306 83.2571 40.4067L83.9898 41.8956L83.2571 43.3832C81.233 47.4839 78.2655 51.7549 74.3901 56.1795C73.7873 56.8681 73.1618 57.5591 72.5123 58.2566C72.849 58.3569 73.1706 58.456 73.4783 58.5513C74.0256 57.958 74.5566 57.3686 75.0698 56.783C78.9983 52.2973 82.0262 47.926 84.068 43.7897L84.8032 42.3021L85.0025 41.8969L84.8032 41.4916L84.8007 41.4891Z" fill="#663300"/>
<path d="M67.7692 31.6811C66.2331 29.9712 64.6101 28.3045 62.9492 26.7C62.9428 26.6936 62.9365 26.6873 62.9315 26.6835C62.4674 26.235 61.9995 25.7904 61.5291 25.3509C60.3285 24.2291 59.1153 23.1417 57.9135 22.0975C51.5133 16.5384 45.3804 12.2103 42.5012 10.2539C40.3762 11.697 36.4793 14.4347 32.0137 18.0018C27.2479 21.8066 21.8314 26.5615 17.227 31.6874C14.257 34.9904 11.6288 38.4508 9.72327 41.896C9.88595 42.192 10.0549 42.488 10.2302 42.784C10.4005 43.0737 10.577 43.3658 10.7587 43.6568C12.5343 46.5176 14.7653 49.367 17.2282 52.111C18.3708 53.3814 19.5601 54.6276 20.7783 55.8446C20.9561 55.8052 21.1352 55.7658 21.3143 55.7277C21.4908 55.6896 21.6674 55.6528 21.844 55.6172C21.9486 55.5956 22.052 55.5753 22.1542 55.555C22.2261 55.5384 22.298 55.5245 22.3686 55.5105C22.3825 55.508 22.3938 55.5054 22.4077 55.5029L22.472 55.0252L22.7785 52.7576L23.269 49.1193L23.3107 48.8081L23.3775 48.3076L23.4872 47.4767L24.1342 42.6608L24.3032 41.4108L25.1368 35.2038L30.402 44.1611V44.9182C30.402 46.1873 30.5659 47.4132 30.8661 48.5794L31.8561 48.1869C31.5975 47.1464 31.4588 46.0501 31.4588 44.9182V36.3484L33.7742 33.4926H39.4392L42.5227 36.8997L45.6061 33.4926H51.2724L53.5853 36.3446V44.9182C53.5853 46.0539 53.444 47.1515 53.1805 48.1945L54.173 48.587C54.4782 47.4221 54.6421 46.1911 54.6421 44.9182V44.0798L59.8607 35.2038L60.6943 41.4108L60.862 42.6608L61.5052 47.4462L61.6136 48.258L61.7044 48.9211L61.7271 49.0888L62.5443 55.0239L62.6515 55.7976L62.6566 55.8306C62.7385 55.8471 62.8193 55.8624 62.9 55.8789C63.1799 55.9348 63.4561 55.9932 63.7298 56.0491C63.8092 56.0656 63.89 56.0822 63.9681 56.0987C63.9921 56.0733 64.0135 56.0491 64.0274 56.0339H64.0287C64.0388 56.0212 64.0451 56.0161 64.0463 56.0136C65.3251 54.7419 66.5774 53.436 67.7742 52.1034C70.7429 48.7979 73.3724 45.3387 75.2767 41.8948C73.3711 38.447 70.7417 34.9853 67.7717 31.6798L67.7692 31.6811ZM54.6421 41.9888V35.9647L54.5223 35.8174L51.7743 32.4268H45.1383L42.5227 35.3181L39.9058 32.4268H33.2736L30.4032 35.9673V42.0701L25.4571 33.6578L29.5091 28.4417H55.4921L59.5429 33.6552H59.5441L54.6446 41.9888H54.6421ZM67.1008 51.4923C66.0957 52.6103 65.0262 53.7409 63.8925 54.8829C63.7992 54.9769 63.7033 55.0735 63.6087 55.165L63.5709 54.8829L62.8722 49.6859L62.7032 48.4371L61.8015 41.7182L61.6325 40.4682L60.6854 33.4024L56.8314 28.4442H58.2918C58.7307 28.4442 59.0863 28.0885 59.0863 27.6464C59.0863 27.2043 58.7307 26.8486 58.2918 26.8486H26.6917C26.2529 26.8486 25.8972 27.2043 25.8972 27.6464C25.8972 28.0885 26.2529 28.4442 26.6917 28.4442H28.166L24.3133 33.4024L23.3661 40.4682L23.1972 41.7182L22.2904 48.4638L22.1214 49.7138L21.39 55.1675C20.149 53.9289 18.9837 52.703 17.9004 51.4987C15.1877 48.4803 12.9757 45.5636 11.3009 42.8056C11.1231 42.5122 10.9503 42.22 10.7851 41.9303C10.7776 41.9202 10.7713 41.9075 10.765 41.8973C12.4889 38.8777 14.8863 35.6522 17.8992 32.2997C21.8238 27.9297 26.7636 23.3602 32.5774 18.7183C36.7391 15.3925 40.4191 12.7857 42.5025 11.3578C42.7257 11.5103 42.9615 11.6729 43.2087 11.8444C43.4534 12.0134 43.7094 12.1925 43.9768 12.3805C47.2632 14.6887 52.1968 18.3372 57.3245 22.7898C61.0575 26.0305 64.3477 29.2293 67.1008 32.2947C70.1136 35.6471 72.5123 38.8739 74.2375 41.8986C72.5135 44.9182 70.1149 48.1437 67.1033 51.4949L67.1008 51.4923Z" fill="#663300"/>
<path d="M54.7102 23.595H52.3153C51.2623 22.0452 49.9103 20.7494 48.3465 19.8144C46.6087 18.7766 44.6111 18.1846 42.4911 18.1846C40.3712 18.1846 38.3761 18.7778 36.6395 19.8132C35.0757 20.7494 33.7187 22.0439 32.6657 23.595H30.2733C29.837 23.595 29.4813 23.9533 29.4813 24.3941C29.4813 24.8349 29.837 25.1931 30.2733 25.1931H54.7114C55.1478 25.1931 55.5034 24.8349 55.5034 24.3941C55.5034 23.9533 55.1478 23.595 54.7114 23.595H54.7102ZM34.0907 23.4451C34.1298 23.3956 34.1702 23.3448 34.2118 23.2965C34.2219 23.2813 34.2345 23.2673 34.2484 23.252C34.2496 23.2495 34.2534 23.247 34.2547 23.2444C34.2623 23.2355 34.2698 23.2266 34.2774 23.2177C34.3077 23.1809 34.3379 23.1453 34.3695 23.1098L34.372 23.1072C34.4123 23.0589 34.4552 23.0119 34.4968 22.9624C34.5246 22.9319 34.5523 22.9027 34.5801 22.8722C34.6343 22.8125 34.6873 22.7541 34.7415 22.6956C34.7516 22.6842 34.7617 22.6728 34.7718 22.6626C34.8184 22.6143 34.8651 22.5648 34.913 22.5165C34.9407 22.4873 34.9698 22.4593 34.9975 22.4314C35.0353 22.3933 35.0732 22.3564 35.1123 22.3183C35.1589 22.2726 35.2056 22.2281 35.2522 22.1837C35.3002 22.1379 35.3493 22.0947 35.3973 22.0503C35.4338 22.016 35.4717 21.9829 35.5095 21.9499C35.5574 21.9067 35.6066 21.8648 35.6545 21.8229C35.6949 21.7886 35.7365 21.7543 35.7781 21.72C35.8298 21.6781 35.8803 21.6349 35.932 21.5942C35.9648 21.5675 35.9963 21.5421 36.0291 21.5155C36.0316 21.5142 36.0367 21.5104 36.0392 21.5078C36.0934 21.4634 36.1489 21.4214 36.2057 21.3808C36.2082 21.3783 36.212 21.377 36.2145 21.3744L36.2183 21.3719C36.2284 21.3643 36.2397 21.3567 36.2498 21.349C36.2838 21.3236 36.3166 21.2995 36.3507 21.2741C36.3734 21.2576 36.3961 21.2398 36.4188 21.2245C36.4907 21.1725 36.5638 21.1216 36.6382 21.0721C36.6988 21.0314 36.7593 20.9908 36.8198 20.9514C36.8526 20.9298 36.8841 20.9082 36.9169 20.8866C36.9901 20.8409 37.0632 20.7952 37.1376 20.7494C37.149 20.7418 37.1603 20.7355 37.1717 20.7278C38.7557 19.784 40.5616 19.2491 42.4848 19.2491C42.5075 19.2491 42.5289 19.2491 42.5516 19.2491C42.5895 19.2491 42.6273 19.2491 42.6652 19.2491C42.6954 19.2491 42.7244 19.2504 42.7547 19.2517C42.8001 19.2517 42.8455 19.2542 42.8896 19.2555C42.9022 19.2555 42.9136 19.2555 42.9262 19.2555C42.9388 19.2555 42.9489 19.2568 42.9615 19.2568C43.0031 19.2593 43.0473 19.2618 43.0901 19.2644C43.0939 19.2644 43.099 19.2644 43.1028 19.2644C43.1633 19.2682 43.2238 19.272 43.2831 19.2771C43.2856 19.2771 43.2881 19.2771 43.2907 19.2771C43.331 19.2796 43.3739 19.2834 43.4155 19.2872C43.4244 19.2872 43.4332 19.2872 43.4433 19.2885C43.4609 19.2911 43.4811 19.2923 43.5 19.2949C43.5618 19.3012 43.6236 19.3088 43.6854 19.3152C43.7005 19.3165 43.7157 19.3177 43.7308 19.3203C43.7358 19.3203 43.7409 19.3215 43.7472 19.3228C43.8935 19.3406 44.0385 19.3635 44.1835 19.3876C44.258 19.4003 44.3324 19.4117 44.4055 19.4257C44.4118 19.427 44.4181 19.4283 44.4244 19.4295C44.4484 19.4333 44.4711 19.4384 44.495 19.4435C44.5644 19.4575 44.635 19.4727 44.7044 19.488C44.7246 19.493 44.746 19.4969 44.7662 19.5019C44.8015 19.5096 44.8368 19.5184 44.8721 19.5273C44.9238 19.54 44.9755 19.5527 45.0272 19.5667C45.0525 19.5731 45.0777 19.5794 45.1029 19.587C45.1168 19.5909 45.1294 19.5947 45.1433 19.5985C45.3299 19.6493 45.5153 19.7052 45.6982 19.7649C45.7171 19.7713 45.7373 19.7776 45.7562 19.784C45.939 19.8449 46.1194 19.911 46.2972 19.9821C46.301 19.9834 46.3035 19.9847 46.3073 19.9859C46.3123 19.9872 46.3174 19.991 46.3224 19.9923C46.3363 19.9986 46.3514 20.005 46.3666 20.0101C46.3741 20.0126 46.3817 20.0164 46.3893 20.0202C46.5028 20.0672 46.615 20.1155 46.726 20.1663C46.726 20.1663 46.7272 20.1663 46.7285 20.1663C46.7663 20.1828 46.8029 20.1994 46.837 20.2146C46.8445 20.2184 46.8508 20.221 46.8584 20.2248C46.9076 20.2476 46.9555 20.2718 47.0034 20.2946C47.0034 20.2946 47.0047 20.2946 47.006 20.2946C47.0261 20.3035 47.045 20.3124 47.0652 20.3239C47.0715 20.3264 47.0766 20.3302 47.0829 20.3328C47.1749 20.3785 47.267 20.428 47.3578 20.4763C47.3982 20.4979 47.4398 20.5195 47.4801 20.5424C47.5154 20.5614 47.5508 20.583 47.5848 20.6021C47.6567 20.6427 47.7273 20.6834 47.7979 20.7253C47.8118 20.7329 47.8232 20.7405 47.8358 20.7469C47.8408 20.7507 47.8471 20.7532 47.8522 20.7571C47.8547 20.7583 47.8597 20.7621 47.8623 20.7634L47.885 20.7774C47.8938 20.7837 47.9026 20.7875 47.9127 20.7939C47.9215 20.8002 47.9304 20.8041 47.9404 20.8104C47.948 20.8155 47.9543 20.8193 47.9619 20.8244C48.0111 20.8549 48.0628 20.8866 48.1107 20.9184C48.1309 20.9324 48.1523 20.9463 48.1725 20.959C48.2267 20.9946 48.2797 21.0302 48.3327 21.0657C48.3541 21.0797 48.3743 21.0937 48.3957 21.1077C48.4197 21.1242 48.4449 21.1432 48.4714 21.1598C48.5256 21.1979 48.5798 21.2372 48.6341 21.2766C48.6593 21.2957 48.6845 21.3135 48.7097 21.3313L48.7148 21.3351C48.8131 21.4075 48.9115 21.4837 49.0074 21.5599C49.0288 21.5764 49.049 21.5929 49.0692 21.6107C49.0956 21.6311 49.1209 21.6527 49.1461 21.673C49.1663 21.6895 49.1864 21.706 49.2066 21.7225C49.2142 21.7301 49.223 21.7365 49.2318 21.7441C49.2987 21.8 49.3643 21.8585 49.4311 21.9156C49.445 21.9283 49.4601 21.941 49.474 21.9537C49.5017 21.9779 49.5295 22.0033 49.5572 22.0287C49.5673 22.0388 49.5787 22.0477 49.5887 22.0566C49.6165 22.0808 49.643 22.1049 49.6707 22.1316C49.7275 22.1849 49.7842 22.2396 49.841 22.2942C49.8473 22.2993 49.8523 22.3056 49.8574 22.3107C49.9078 22.359 49.9557 22.4085 50.0049 22.4581C50.0377 22.4911 50.0718 22.5229 50.1045 22.5572C50.1575 22.6118 50.2105 22.6677 50.2634 22.7248C50.2748 22.7375 50.2874 22.749 50.2988 22.7617C50.3013 22.7655 50.3051 22.768 50.3076 22.7706C50.3442 22.81 50.3795 22.8493 50.416 22.8913C50.4476 22.9268 50.4791 22.9611 50.5106 22.998C50.5472 23.0412 50.585 23.0843 50.6203 23.1263C50.6241 23.1301 50.6279 23.1352 50.6304 23.139C50.6443 23.1542 50.6569 23.1669 50.667 23.1822C50.6683 23.1847 50.672 23.1885 50.6733 23.1911C50.6884 23.2088 50.7023 23.2266 50.7175 23.2444C50.7515 23.2851 50.7868 23.3257 50.8196 23.3676C50.8297 23.3816 50.841 23.393 50.8511 23.407C50.9003 23.4667 50.9482 23.5264 50.9949 23.5874H33.9596C33.9672 23.5785 33.9735 23.5696 33.981 23.5607C34.0126 23.5188 34.0453 23.4769 34.0781 23.4375L34.0907 23.4451Z" fill="#663300"/>
<path d="M34.2282 54.6415C34.2799 54.6961 34.3328 54.7482 34.3846 54.8016C34.4388 54.8549 34.4918 54.907 34.546 54.9591C34.6002 55.0086 34.6544 55.0607 34.7099 55.1128C34.8739 55.2652 35.0429 55.4126 35.2156 55.5549C35.995 56.204 36.8475 56.749 37.7619 57.1759C39.0797 57.7894 40.5199 58.1566 42.0308 58.2188L42.5289 62.3462L43.0119 58.2176C44.5089 58.149 45.9352 57.7844 47.2405 57.1771C48.1573 56.7503 49.0149 56.2028 49.7968 55.5574C50.3038 55.1395 50.7805 54.6771 51.2332 54.1626C51.2559 54.1384 51.2786 54.113 51.3013 54.0863H51.3026C51.3026 54.0863 51.3076 54.08 51.3101 54.0774C51.3152 54.0724 51.319 54.0673 51.324 54.0622C51.7452 53.5744 52.1311 53.0497 52.4817 52.4984C52.5145 52.4463 52.5486 52.3968 52.5814 52.3447C52.6633 52.2126 52.7415 52.0766 52.8197 51.9407C52.8903 51.8162 52.9584 51.6904 53.0265 51.5609C53.1552 51.3157 53.2775 51.0654 53.391 50.8101L52.3367 50.5649C52.2371 50.7758 52.1337 50.9829 52.0227 51.1861C51.9861 51.2547 51.9483 51.3208 51.9104 51.3881C51.7969 51.5888 51.6797 51.7857 51.5561 51.9788C51.4337 52.1719 51.3051 52.3599 51.1727 52.5441C51.0415 52.7283 50.9041 52.9087 50.7603 53.084C50.619 53.2606 50.4728 53.4308 50.3214 53.596C50.2609 53.6633 50.1991 53.7281 50.136 53.7942C50.0831 53.8501 50.0301 53.9047 49.9746 53.9593H49.9734C49.9734 53.9593 49.9607 53.9733 49.9557 53.9796C49.9343 54.0025 49.9116 54.0241 49.8914 54.0444C49.8371 54.099 49.7829 54.1511 49.7274 54.2019C49.5938 54.3315 49.4563 54.456 49.315 54.5742C49.2923 54.5958 49.2696 54.6148 49.2457 54.6351C49.1788 54.691 49.112 54.7482 49.0426 54.8028C49.03 54.813 49.0174 54.8244 49.0048 54.8333C48.9254 54.8968 48.8446 54.9591 48.7639 55.0201C48.6857 55.0798 48.6076 55.1382 48.5268 55.1954C48.5067 55.2106 48.4877 55.2246 48.4676 55.236C48.3969 55.2881 48.3238 55.3376 48.2519 55.3847C48.1662 55.4444 48.0779 55.5003 47.9896 55.5562H47.9883C47.605 55.7988 47.2102 56.0198 46.7991 56.2117C45.6616 56.7401 44.4307 57.0641 43.1393 57.1428C43.0346 57.1505 42.9312 57.1568 42.8265 57.1593C42.9312 57.1543 43.0346 57.1505 43.1393 57.1428L43.3247 55.5562L43.5391 53.7256L43.5403 53.7129L44.0309 49.5346L42.5239 48.9795L40.9903 49.5575L41.4872 53.6874L41.4935 53.7319V53.7383L41.7142 55.5574L41.9059 57.1479C41.2527 57.1098 40.6145 57.0094 39.9978 56.8519C39.3811 56.6957 38.7834 56.4797 38.2108 56.2117C37.8022 56.0198 37.405 55.8001 37.0241 55.5562C36.9383 55.5015 36.8538 55.4469 36.7693 55.3885C36.6861 55.3338 36.6029 55.2754 36.5222 55.217C36.3507 55.095 36.1817 54.968 36.0165 54.8346C35.9559 54.7876 35.8954 54.7368 35.8374 54.6872C35.7731 54.6339 35.7087 54.5792 35.6457 54.5221C35.6015 54.4852 35.5587 54.4459 35.5158 54.4065C35.4679 54.3645 35.4187 54.3201 35.3708 54.2731C35.3506 54.2566 35.3317 54.2375 35.314 54.2197C35.2547 54.1638 35.198 54.1067 35.14 54.0508L35.1122 54.0228C35.1021 54.0127 35.0908 54.0025 35.082 53.9911C35.0429 53.9542 35.005 53.9161 34.9685 53.8767C34.9521 53.8589 34.9331 53.8399 34.9168 53.8221C34.8865 53.7929 34.8575 53.7649 34.8323 53.7345C34.773 53.6735 34.7175 53.6112 34.6633 53.549C34.6027 53.4855 34.5472 53.4194 34.493 53.3546C34.4451 53.3013 34.3997 53.2479 34.3556 53.1933C34.2887 53.1132 34.2231 53.0307 34.1588 52.9481C34.1109 52.8884 34.0655 52.8274 34.0201 52.7677C33.8536 52.5479 33.696 52.3205 33.5446 52.0893C33.4778 51.989 33.4147 51.8873 33.3517 51.7845C33.1133 51.3919 32.8964 50.9841 32.6972 50.5611L31.6466 50.8063H31.6454C31.682 50.8888 31.7198 50.9689 31.7589 51.0489C31.8724 51.2915 31.9922 51.5304 32.1196 51.7641C32.1196 51.7654 32.1208 51.7654 32.1208 51.7667C32.1423 51.8035 32.1612 51.8416 32.1826 51.8772L32.2066 51.8531H32.2078L32.1826 51.8785C32.2381 51.9801 32.2974 52.0804 32.3567 52.1795C32.4159 52.2799 32.4752 52.379 32.5383 52.4768C32.5837 52.5467 32.6278 52.6178 32.6757 52.6877C32.7615 52.8211 32.851 52.9532 32.9431 53.0828C32.9809 53.1374 33.0213 53.1933 33.0629 53.2479C33.0995 53.3 33.1373 53.3508 33.1764 53.4016C33.2067 53.4423 33.2382 53.4855 33.2685 53.5248C33.3 53.5668 33.3315 53.6074 33.3656 53.6481C33.4261 53.7243 33.4866 53.798 33.5484 53.8729C33.5736 53.9047 33.6001 53.9364 33.6266 53.9669C33.672 54.0228 33.7187 54.08 33.7679 54.1346C33.7754 54.1435 33.7843 54.1549 33.7918 54.1638C33.8133 54.1892 33.836 54.2134 33.8587 54.2388C33.8801 54.2629 33.9003 54.2871 33.923 54.3112C34.0239 54.4243 34.126 54.5335 34.232 54.6415H34.2282Z" fill="#663300"/>
<path d="M44.6414 40.0205V42.0785L51.0933 40.9352L51.1009 40.9339L44.6414 40.0205Z" fill="#663300"/>
<path d="M40.3788 40.0205L33.9193 40.9339L33.9269 40.9352L40.3788 42.0785V40.0205Z" fill="#663300"/>
<path d="M32.1273 49.1212L31.1423 49.5112L31.0023 49.5671L30.677 49.6954L30.5811 49.7348L30.0691 49.9368L29.4474 50.1833L29.2292 50.2696L28.8698 50.4119L28.8395 50.4234L28.8029 50.4386L28.7096 50.4754L28.808 50.4526L28.8584 50.4424L28.8798 50.4361L29.3162 50.3344L29.5457 50.2823L29.832 50.215L30.2482 50.1185L30.938 49.9584L31.0843 49.9254L31.2735 49.8809L31.3693 49.858L32.3114 49.6408L42.5101 47.2767L52.7265 49.6459L53.7669 49.886L54.168 49.9787L54.6989 50.102L54.7178 50.1058L54.7304 50.1096L54.8566 50.1388L55.1832 50.2137L55.4077 50.2671L55.7015 50.3344L56.0975 50.4272L56.1391 50.4361L56.3081 50.4754L56.1492 50.4119L56.1227 50.4005L55.7898 50.2696L55.5136 50.1604L55.3169 50.0829L55.0281 49.9673L54.8011 49.8784L54.7721 49.8657L54.4189 49.7259L53.8943 49.5189L52.9119 49.1289L42.5101 45.0078L33.1399 48.7198L32.1273 49.1212Z" fill="#663300"/>
<path d="M16.696 65.4637L16.7376 65.0546L17.1702 65.0534L17.1298 65.4637H20.7808L20.8212 65.0546L21.0381 62.923L21.0898 62.4186H20.6963L20.714 62.2408L20.7997 61.4023H12.4788L12.4094 62.082L12.1925 64.2149L12.108 65.0534H13.0867L13.0451 65.4637H16.696ZM17.2194 62.162H19.9901L19.9649 62.4186L19.9182 62.8747L19.8778 63.2787L19.7757 64.2937H17.0025L17.2194 62.162ZM12.9177 64.2937L12.9719 63.7601L13.1346 62.162H15.9053L15.8801 62.4186L15.8334 62.8747L15.6896 64.2937H12.9164H12.9177Z" fill="#663300"/>
<path d="M72.4858 79.1821L72.2777 79.2977L71.97 78.5927L71.6522 77.8584L70.9686 78.2332L69.0782 79.2723L68.4703 79.6064L68.7541 80.2581L74.6272 93.7633L74.9475 94.4976L75.631 94.1228L75.6726 94.0987L75.8656 94.5433L76.0573 94.9829L76.4672 94.758L78.3576 93.7188L78.7208 93.5181L78.5518 93.1281L72.6775 79.6229L72.4858 79.1821ZM77.1797 92.4129L76.4545 92.8105L75.7571 93.1929L75.37 93.4051L75.2905 93.4495L69.4174 79.9456L70.8097 79.1796L71.3079 78.9064L71.632 79.6509L71.8136 80.0676L76.9212 91.8146L77.1809 92.4116L77.1797 92.4129Z" fill="#663300"/>
<path d="M43.3714 93.1736L43.2844 92.9716H45.9315L46.1244 93.4187L46.4422 94.1543L47.1257 93.777L47.1699 93.7529L47.3616 94.1962L47.5533 94.6383L47.9631 94.4122L49.8548 93.3743L50.218 93.1736L50.131 92.9716H50.8183L51.2963 94.0793L51.6141 94.8161L52.2989 94.4388L52.343 94.4147L52.5347 94.8581L52.7252 95.3001L53.1376 95.074L55.028 94.0349L55.3912 93.8354L55.2222 93.4454L55.0192 92.9716H61.1154L61.3084 93.4187L61.6262 94.1543L62.311 93.777L62.3551 93.7529L62.5468 94.1962L62.7385 94.6383L63.1484 94.4122L65.0388 93.3743L65.402 93.1736L65.315 92.9716H68.6759L69.0202 93.763L69.338 94.4986L70.0215 94.1238L70.0657 94.0997L70.2574 94.543L70.449 94.9838L70.8589 94.759L72.7493 93.7198L73.1138 93.5191L72.9436 93.1291L67.0705 79.6239L66.8788 79.1831L66.6695 79.2987L66.363 78.5936L66.0427 77.8594L65.3604 78.2341L63.4687 79.2733L62.8608 79.6074L63.1459 80.2604L66.8309 88.7184H63.4712L61.3891 83.9101L60.6955 82.3082L60.5038 81.8661L60.2932 81.983L59.988 81.2779L59.6702 80.5424L58.9867 80.9197L57.2274 81.8864H50.2193L50.2105 81.8661L50.1777 81.8864H49.9595L49.6959 81.2792L49.3781 80.5436L48.6933 80.9209L46.8029 81.9601L46.1963 82.2929L46.4788 82.9446L48.9796 88.7184H47.8522L47.074 86.9196L46.8824 86.4788L46.6717 86.5944L46.3666 85.8906L46.0488 85.1551L45.364 85.5298L43.4735 86.569L42.8669 86.9018L43.1494 87.5535L43.6526 88.7171H41.4431L38.6674 82.3082L38.4757 81.8661L38.2651 81.983L37.9599 81.2779L37.6421 80.5424L36.9573 80.9197L35.0668 81.9588L34.4602 82.2917L34.7427 82.9434L37.2436 88.7171H32.0755L29.2997 82.3082L29.108 81.8661L28.8974 81.983L28.5922 81.2779L28.2744 80.5424L27.5896 80.9197L25.6992 81.9588L25.0926 82.2917L25.3751 82.9434L27.8759 88.7171H21.3458L18.57 82.3082L18.3783 81.8661L18.1677 81.983L17.8625 81.2779L17.5447 80.5424L16.8599 80.9197L14.9695 81.9588L14.3629 82.2917L14.6454 82.9434L17.1462 88.7171H15.8321L15.7628 89.3968L15.5471 91.5297L15.4614 92.3694H16.8196L16.8108 92.4647L16.7591 92.969H18.9887L19.5512 94.2699L19.869 95.0054L20.5538 94.6281L20.5954 94.6053L20.7884 95.0486L20.9801 95.4894L21.3899 95.2646L23.2804 94.2254L23.6436 94.0247L23.4746 93.6347L23.187 92.969H29.7171L30.1258 93.9129L30.4436 94.6485L31.1283 94.2737L31.17 94.2496L31.3629 94.6929L31.5533 95.135L31.9632 94.9089L33.8549 93.8697L34.2181 93.6703L34.0491 93.2777L33.9154 92.969H39.0835L39.2765 93.4162L39.5943 94.1517L40.2791 93.7744L40.3207 93.7503L40.5137 94.1937L40.7041 94.6358L41.114 94.4096L43.0056 93.3717L43.3689 93.171L43.3714 93.1736ZM41.3901 92.3072L40.409 92.8471L40.0218 93.0605L39.9398 93.1062L39.8806 92.9728H39.8818L39.6838 92.5168L39.2916 91.6123H32.2634L32.677 92.5651L31.2557 93.3463L30.8686 93.5585L30.7866 93.6042L30.5117 92.9716L30.3149 92.5155L30.3074 92.5015L29.9227 91.611H21.5324L21.9915 92.6692L22.0999 92.9195L20.6786 93.7008L20.5349 93.7795L20.2902 93.9129L20.2082 93.9586L19.7795 92.9703L19.5815 92.5143L19.1905 91.6098H16.2634L16.4791 89.4768H18.2661L16.0793 84.4259L15.3012 82.6296L16.9684 81.7136L17.1916 81.5904L17.5145 82.3361L17.6961 82.7528L20.608 89.4768H28.9983L26.0321 82.6296L27.1545 82.0122L27.9226 81.5892L28.2454 82.3349L28.427 82.7515L29.9984 86.3797L31.3377 89.4756H38.366L35.3998 82.6283L36.9207 81.7924L37.2902 81.5892L37.6131 82.3349L37.7947 82.7515L40.7066 89.4756H44.7763L43.8077 87.2384L44.7523 86.7189L45.6982 86.2006L46.021 86.9463L46.2026 87.3629L47.1169 89.4756H50.1033L47.1371 82.6283L48.6114 81.8178L49.0275 81.5879L49.3516 82.3336L49.4841 82.6423H57.438L57.4304 82.627L58.684 81.9385L59.3209 81.5879L59.645 82.3336L59.824 82.7503L60.0145 83.1898L62.736 89.4743H67.9571L63.8042 79.9415L65.2557 79.1437L65.6946 78.9023L66.0187 79.6468L66.2003 80.0634L71.5689 92.4088L71.2095 92.6044L70.1476 93.1901L69.7605 93.4022L69.6785 93.4467L69.4704 92.9678L69.3935 92.7912L69.2724 92.5117L68.7554 91.3163L68.7251 91.6085H63.6617L63.8067 91.9426L63.8584 92.0633L62.4371 92.8445L62.0499 93.058L61.968 93.1037L61.9112 92.9703L61.7132 92.5143L61.4459 91.8969L61.321 91.6098H53.3683L53.8476 92.7264L52.4275 93.5064L52.0404 93.7185L51.9571 93.7656L51.6128 92.969L51.4161 92.513L51.0252 91.6085H48.4752L48.5647 91.8105L48.6732 92.0633L47.2519 92.8445L46.8647 93.058L46.7827 93.1037L46.7234 92.9703L46.5255 92.5143L46.1345 91.6098H41.6285L41.8252 92.0645L41.3851 92.3059L41.3901 92.3072Z" fill="#663300"/>
<path d="M21.25 82.9748H24.901L24.9413 82.5671L25.1582 80.4341L25.21 79.9298H24.4381L24.476 79.5627L24.5617 78.7217H20.3243L20.2562 79.4013L20.0393 81.5343L19.9548 82.374H21.3105L21.3017 82.4692L21.25 82.9736V82.9748ZM20.7632 81.6143L20.9801 79.4814H23.7508L23.7054 79.9298L23.6588 80.3859L23.5352 81.6156H20.762L20.7632 81.6143Z" fill="#663300"/>
<path d="M29.1358 97.715L29.2039 97.043H15.1171L15.0616 97.5867L14.9897 98.4607L14.9216 99.1327H16.1311L16.102 99.4185L16.0503 99.9229H29.5457L29.586 99.5138L29.6604 98.7922L29.7121 98.2892H29.0942L29.1358 97.715ZM28.5065 98.2892L28.4825 98.5242H15.5686L15.6405 97.6502H28.5569L28.5078 98.2879L28.5065 98.2892Z" fill="#663300"/>
<path d="M72.4417 62.0084H62.9719L62.6503 61.2678L62.4599 60.8257L62.2492 60.9425L61.9428 60.2375L61.625 59.502L60.9415 59.8793L59.0498 60.9184L58.4432 61.2512L58.7269 61.9029L58.7723 62.0084H58.674L58.6046 62.688L58.3889 64.821L58.3032 65.6619H59.6614L59.6513 65.7572L59.5996 66.2615H60.6148L62.4926 70.5998H57.0547L53.0127 61.2678L52.8223 60.8257L52.6117 60.9425L52.3053 60.2375L51.9875 59.502L51.3039 59.8793L49.4122 60.9184L48.8056 61.2512L49.0894 61.9029L49.7754 63.4883L45.2518 70.5998H42.2061L38.5716 62.2078L38.3811 61.767L38.1705 61.8826L37.8641 61.1788L37.5463 60.4433L36.8627 60.818L34.9711 61.8572L34.3645 62.19L34.6482 62.8417L38.0066 70.5985H31.049L31.6732 71.7355L32.8448 73.8685L33.0541 74.2496H33.8663L34.0694 74.6218L34.1955 74.8492H39.8466L40.2413 75.7613L40.5591 76.4968L41.2439 76.1221L41.2855 76.0979L41.4772 76.5413L41.6689 76.9821L42.0788 76.7573L43.9705 75.7181L44.3337 75.5187L44.1647 75.1261L44.0436 74.8492H64.3301L64.7236 75.7613L65.0439 76.4968L65.7274 76.1221L65.7716 76.0979L65.9633 76.5413L66.155 76.9821L66.5648 76.7573L68.4553 75.7181L68.8185 75.5187L68.6495 75.1261L68.5309 74.8492H74.2905L74.3309 74.4414L74.5478 72.3085L74.5995 71.8054H73.8277L73.8655 71.4357L73.9513 70.5973H66.6897L64.8119 66.259H72.7809L72.8213 65.8512L73.0382 63.7183L73.0899 63.2139H72.3181L72.3559 62.8468L72.4404 62.0071L72.4417 62.0084ZM71.5879 63.2165L71.5412 63.6725L71.4164 64.9023H63.1636L65.9607 71.3608H73.1441L73.0987 71.8092L73.0521 72.2653L72.9285 73.4937H66.8851L67.2837 74.4147L65.9696 75.1363L65.8611 75.196L65.4752 75.4081L65.392 75.4526L65.1322 74.8543L64.9355 74.3982L64.5432 73.4937H42.3978L42.7964 74.4147L41.3751 75.196L41.283 75.2455L40.9879 75.4081L40.9059 75.4526L40.7685 75.1376L40.6461 74.853L40.4481 74.3969L40.0559 73.4924H33.4754L32.5497 71.8092L32.3038 71.3608H39.1328L36.3116 64.8476L35.309 62.5305L37.2007 61.4913L37.5236 62.237L37.7027 62.6537L41.4734 71.3608H45.6402L50.6015 63.5595L49.778 61.6565L49.749 61.5917L50.9432 60.9349L51.6406 60.5525L51.9635 61.2982L52.1426 61.7149L56.3194 71.3608H63.6176L61.4093 66.2628L61.2113 65.8068L60.8204 64.9023H59.1103L59.326 62.7693H59.896L59.3865 61.5917L60.8305 60.799L61.2782 60.5525L61.601 61.2982L61.7801 61.7149L61.8444 61.8648L62.2366 62.7693H71.6295L71.5841 63.2178L71.5879 63.2165Z" fill="#663300"/>
<path d="M52.1779 67.1963L51.5524 65.748L49.7679 68.553L47.9834 71.3592H53.9826L52.391 67.6853L52.1779 67.1963ZM50.1008 70.5996L51.6949 67.8899L52.8539 70.5996H50.1008Z" fill="#663300"/>
<path d="M15.3441 74.348L15.2949 74.851H15.8788L16.2231 75.0657L17.9042 76.1049L18.4982 76.472L18.5221 76.4352L19.024 76.7464L19.3822 76.9662L19.6117 76.6041L20.7278 74.8485H27.5896L28.1016 76.0312L28.4194 76.7667L29.1042 76.392L29.1484 76.3678L29.3401 76.8112L29.5318 77.2533L29.9416 77.0272L31.8321 75.988L32.1953 75.7886L32.0263 75.396L25.906 61.2658L25.7156 60.8237L25.505 60.9406L25.1998 60.2355L24.8795 59.5L24.1959 59.8773L22.3055 60.9165L21.6989 61.2493L21.9814 61.901L22.6674 63.4864L18.145 70.5979H14.368L14.2986 71.2775L14.0829 73.4104L13.9972 74.2489H15.3554L15.3453 74.3467L15.3441 74.348ZM14.8068 73.4905L15.0225 71.3588H18.536L21.2499 67.0891L23.496 63.5575L22.6725 61.6545L22.6447 61.5897L23.8378 60.933L24.5352 60.5506L24.858 61.2963L25.0371 61.713L27.2693 66.8668L30.6529 74.6821L29.2316 75.4634L28.8457 75.6755L28.7625 75.7212L28.3867 74.851L28.1887 74.395L27.7965 73.4905H19.5171L18.2712 75.4494L17.7024 75.0988L17.6154 75.0441L17.3253 74.8663L17.3039 74.851L16.5913 74.4115L16.6002 74.395L17.1752 73.4905H14.8043H14.8068Z" fill="#663300"/>
<path d="M25.2844 67.6853L25.0737 67.1963L24.4457 65.748L22.6612 68.553L20.8767 71.3592H26.8759L25.2844 67.6853ZM24.5907 67.8899L25.7472 70.5996H22.9941L24.5907 67.8899Z" fill="#663300"/>
<path d="M52.4465 89.4784H60.4004L59.7938 88.0784L58.9539 86.1399L58.7572 85.6838L58.3649 84.7793H50.411L51.2333 86.6772L52.4465 89.4771V89.4784ZM58.1556 86.1399L59.2717 88.7187H53.1779L52.0618 86.1399H58.1569H58.1556Z" fill="#663300"/>
<path d="M39.1352 97.0054L39.221 96.167H30.9001L30.8307 96.8466L30.6151 98.9796L30.5293 99.818H31.4499L31.4247 100.067L31.3755 100.571H35.0265L35.0668 100.162L35.1021 99.8167H35.5372L35.512 100.066L35.4603 100.57H39.1113L39.1529 100.161L39.3685 98.0281L39.4202 97.525H39.0848L39.1378 97.0042L39.1352 97.0054ZM34.2736 97.4602L34.266 97.5276L34.2206 97.9836L34.1109 99.0596H31.3402L31.5559 96.9279H34.3291L34.2748 97.4615L34.2736 97.4602ZM38.3508 97.5276L38.3041 97.9836L38.1957 99.0596H35.4225L35.5852 97.4615L35.6394 96.9279H38.4126L38.3508 97.5276Z" fill="#663300"/>
<path d="M49.5371 96.873L49.5156 97.0051L49.4122 97.0953L49.2155 97.1462L49.1777 97.169L49.0856 98.8624L49.0692 100.56L49.107 100.723L49.0717 100.848L48.9645 100.92L48.8926 100.943L48.7691 100.961L48.4651 100.927L48.0439 100.84L47.8598 100.754L47.7841 100.69L47.7475 100.565V100.458L47.8459 100.354L47.9632 100.325L48.0691 100.35L48.1196 100.375L48.1851 100.394L48.2394 100.4L48.3441 100.383L48.3831 100.239L48.4588 99.1635L48.4866 99.0492L47.9556 99.0326H47.3869L47.3112 99.9524L47.2645 100.078L47.2343 100.124L47.2242 100.184L47.1586 100.262L47.1775 100.325L47.1636 100.386L47.2708 100.469L47.3288 100.6L47.2961 100.729L47.2355 100.834L47.1409 100.92L47.0653 100.952L46.9076 100.985L46.7336 100.994H46.5596L46.3792 100.985L46.1951 100.961L46.0879 100.927L45.765 100.729L45.7083 100.678L45.6364 100.602L45.451 100.354L45.4056 100.245L45.4409 100.128L45.4889 100.044L45.6213 99.993L45.7613 100.04L45.8193 100.087L45.8445 100.116L45.8697 100.133L45.9328 100.158L46.0223 100.184L46.069 100.187L46.1055 99.26L46.1207 99.1635L46.1547 99.0784L46.1383 99.0441L46.1081 98.9272L46.1951 98.7913L46.2064 98.7582L46.1497 98.6782L46.1232 98.602L46.1749 97.9782V97.6861L46.1673 97.4701H46.1547L45.929 97.5006L45.8281 97.526L45.731 97.5603L45.5242 97.6772H45.4018L45.3337 97.6238L45.4258 97.1982L45.5822 97.1131L45.6616 97.0496L45.7259 97.0166L45.9933 96.8959L46.2607 96.7968L46.8988 96.5986L47.0211 96.6444L47.2645 96.8527L47.3793 97.0115L47.426 97.0953L47.4587 97.2046L47.4524 97.4167L47.431 98.4711L47.9632 98.4775L48.5168 98.4991L48.5193 98.4711V97.357L48.5093 97.1906L48.4941 97.1576L48.4828 97.1538L48.4222 97.136H48.2961L48.1763 97.0966L48.1095 97.0458L48.0578 96.9353L48.0464 96.8451L48.0868 96.718L48.2091 96.6609L48.2886 96.652L48.4071 96.6672L48.7552 96.6736L49.3239 96.6482L49.4299 96.6952L49.5005 96.7828L49.5371 96.873Z" fill="#663300"/>
<path d="M45.2858 97.0988L45.2328 97.6235L45.2164 97.9246L45.1962 98.0148L45.0953 98.1139L45.026 98.1494H44.9289L44.8103 98.1291L44.3904 98.0999L44.21 98.1139L44.1091 98.1316L44.0082 98.1253L43.8998 98.0694L43.8468 98.0148L43.8178 97.8992L43.8304 97.7505L43.8203 97.4583L43.4735 97.5612L43.2617 97.6451L43.1746 97.8229L43.0662 97.9093L43.0296 97.922L43.08 98.0262L43.0132 98.1634L42.988 98.1799L43.0094 98.2079L43.0195 98.3209L43.0157 98.3463L42.9653 98.547L42.9287 98.7351L42.8997 98.9828L42.824 99.4084L42.8089 99.6014L42.8127 99.7818L42.824 99.8161L42.8833 99.9063L43.0019 100.003L43.2213 100.154L43.2932 100.196L43.4622 100.272L43.5668 100.313L43.6652 100.336L43.8859 100.374L44.2642 100.416L44.6401 100.437L44.7157 100.43L44.8267 100.484L44.8936 100.589L44.9213 100.703L44.8961 100.83L44.8494 100.912L44.741 100.976L44.6338 101L44.0435 100.961L43.4596 100.877L43.0346 100.782L42.8505 100.709L42.7459 100.694L42.6803 100.66L42.6185 100.615L42.5718 100.592L42.4987 100.576L42.4356 100.543L42.1128 100.328L41.8832 100.153L41.5617 99.8504L41.457 99.6853L41.4015 99.5684L41.4166 99.4045L41.4557 99.3143L41.5541 99.186L41.5465 99.1759L41.5516 99.0374L41.597 98.9205L41.539 98.8723L41.4683 98.7757L41.4746 98.6436L41.5503 98.3908L41.6562 98.0834L41.7811 97.7797L42.0875 97.1573L42.1355 97.1001L42.2174 97.0379H42.4306L44.63 96.6377H44.6577L44.7838 96.6669L44.939 96.7571L45.1887 96.893L45.2605 96.9756L45.2858 97.0988Z" fill="#663300"/>
<path d="M56.0116 96.8921V97.0343L55.8969 97.1283L55.8288 97.1512L55.6976 97.183L55.627 97.2236L55.5967 97.2859L55.5892 97.3278L55.5475 98.6655L55.569 99.335L55.6472 100.096L55.6446 100.121L55.632 100.175V100.231L55.6623 100.375L55.6736 100.605L55.6623 100.713L55.5564 100.821L55.3672 100.91L55.2676 100.936L55.1314 100.892L55.0771 100.851L54.9762 100.721L54.9472 100.618L54.9649 100.231L54.9586 99.8914L54.8779 99.7491L54.8501 99.6614L54.4024 99.1495L53.8715 98.5931L53.6306 98.3619L53.6167 98.6998L53.5474 99.34L53.6445 99.6005L53.6041 99.758L53.5335 99.8584L53.6256 99.9854L53.647 100.11L53.6054 100.4L53.6218 100.555L53.647 100.659V100.76L53.5676 100.863L53.4818 100.924L53.3923 100.953L53.2737 100.965L53.0492 100.961L52.9093 100.947L52.6545 100.901L52.4893 100.844L52.1854 100.709L52.0706 100.614L51.9054 100.433L51.8032 100.295L51.7578 100.204L51.7427 100.1L51.8247 99.9727L51.942 99.9282L52.0782 99.96L52.1387 99.9981L52.1753 100.036L52.2106 100.055L52.3783 100.107L52.3808 98.5435L52.4035 98.4495L52.483 98.372L52.4565 98.3111L52.4237 98.1929L52.4792 98.0265L52.4704 98.0125L52.4616 97.9642L52.4098 97.8055L52.4199 97.6479L52.3922 97.6454L52.3014 97.6238L52.1097 97.573L51.6418 97.404L51.5775 97.3405L51.5359 97.1068L51.6418 96.9975L51.7288 96.9543L51.8436 96.9835L51.8865 97.0026L51.9596 97.0267L52.0315 97.0305L52.2724 97.0115L52.4704 96.9759L52.6734 96.9289L52.8727 96.8679L53.0745 96.7942L53.1464 96.7574L53.2699 96.6697L53.3885 96.6532L53.4894 96.7002L53.5827 96.7625L54.0052 97.1296L54.1237 97.2528L54.4125 97.4967L54.4529 97.6022L54.4453 97.728V97.7318L54.526 97.7394L54.6332 97.8156L54.6874 97.8995L54.724 98.0024L54.7392 98.0151L54.8905 98.0595L54.9876 98.1319L54.9977 98.0367L55.0153 97.6987L54.9788 97.4116L54.9548 97.3214L54.9397 97.2884L54.9081 97.2554L54.7341 97.1207L54.7013 97.1068L54.5248 97.0407L54.4491 96.9581L54.3999 96.859L54.468 96.718L54.5828 96.6532L54.6761 96.6367L54.9334 96.6875H55.0532L55.1995 96.7028L55.2966 96.7168H55.3773L55.6762 96.6926L55.7985 96.704L55.8792 96.7218L55.9788 96.826L56.0116 96.8921Z" fill="#663300"/>
<path d="M59.6009 100.11L59.5568 100.063L59.249 99.5488L59.022 99.0851L58.4823 97.816L58.5832 97.6305L58.6588 97.4705L58.6967 97.3447L58.5453 97.0055L58.4293 96.7756L58.3789 96.6981L58.2792 96.6396H58.1594L57.8631 96.8543L57.3485 97.1338L56.9361 97.3333L56.7268 97.4209L56.6297 97.4501L56.5313 97.4717L56.3775 97.4895L56.3157 97.5442L56.2312 97.6902L56.2753 97.7919L56.3434 97.8706L56.4809 97.9253L56.7999 97.8871L57.2741 97.8033L57.2956 97.8871L57.264 97.8948L57.1934 97.9316L57.1152 97.9989L57.09 98.0891L57.0812 98.1895L57.09 98.2479L57.061 98.2695L56.2766 99.7165L56.274 99.719L56.1429 99.6682L56.0849 99.625L56.0622 99.5971L55.9688 99.5259H55.8339L55.728 99.5983L55.6763 99.7317L55.8907 100.161L55.9966 100.336L56.1555 100.551L56.6007 100.945H56.7331L56.8239 100.895L56.9071 100.805L56.9576 100.691L56.9639 100.611L57.0572 100.542L57.1707 100.306L58.0661 100.263L58.9199 100.272L58.9249 100.301L58.9186 100.329L58.8884 100.385L58.8442 100.433L58.8114 100.462L58.7282 100.5L58.6588 100.518L58.5693 100.55L58.5176 100.604L58.4482 100.765L58.5176 100.871L58.6008 100.94L58.7433 100.987L58.8518 100.961L59.0788 100.853L59.4407 100.718L59.6375 100.657L59.7144 100.648L59.8544 100.58L59.8985 100.447L59.862 100.321L59.6009 100.108V100.11ZM58.0459 99.7698L57.4091 99.7978L57.399 99.7774L57.5087 99.7101L57.5453 99.5844L57.5289 99.4624L57.5125 99.4471L57.6171 99.3963L57.8946 98.8666L58.1216 98.4512L58.7118 99.7114L58.0472 99.7698H58.0459Z" fill="#663300"/>
<path d="M65.6707 98.9384L65.6253 98.8444L65.5433 98.7822L65.5231 98.7733L65.532 98.6628L65.4866 98.5459L65.3655 98.3947L65.368 98.3477L65.3428 98.2016L65.2987 98.0733L65.1751 97.8167L65.1044 97.6935L65.03 97.5779L64.8573 97.3784L64.6769 97.2006L64.4814 97.0392L64.2986 96.902L64.1788 96.7737L64.064 96.7077L63.9556 96.6289L63.8421 96.6416L63.4082 96.7826L63.1232 96.8881L62.5557 97.1586L62.2505 97.3276L62.0992 97.4229L61.9529 97.5245L61.5128 97.9005L61.1079 98.3007L61.0575 98.3604L61.007 98.4925L61.0045 98.5179L61.0121 98.617L61.1294 99.0273L61.1836 99.1125L61.2605 99.1912L61.3526 99.2154H61.3627L61.3375 99.3297L61.3929 99.43L61.4913 99.5202L61.5708 99.5558L61.5581 99.5939L61.5556 99.7375L61.6578 99.9395L61.7259 100.046L61.9302 100.308L62.4056 100.721L62.4851 100.782L62.6667 100.888L62.813 100.953L62.9328 100.966L63.0223 100.938L63.0816 100.929L63.5306 100.768L64.2645 100.47L64.5899 100.315L65.2167 99.9534L65.3983 99.8302L65.5799 99.6765L65.6669 99.5596L65.7426 99.3513L65.7098 99.1099L65.6656 98.9397L65.6707 98.9384ZM64.1157 99.6371L63.8345 99.7527L63.7096 99.8251L63.6453 99.8709L63.528 99.9217L63.4801 99.9293L63.4259 99.8937L63.3061 99.7807L63.2203 99.7286H63.1308L62.9731 99.773H62.9504V99.6346L62.9189 99.505L62.8395 99.4186L62.7726 99.3665L62.6604 99.2941L62.6465 99.2789L62.6566 99.1455L62.6427 99.021L62.475 98.6424L62.2909 98.2931L62.2631 98.2486L62.253 98.2194L62.2505 98.1521L62.3413 98.0454L62.5481 97.8916L62.6465 97.8294L62.9517 97.663L63.0728 97.6096L63.2418 97.7125L63.3212 97.7786L63.499 97.9526L63.5734 98.0403L63.6491 98.1406L63.7248 98.2029L63.8408 98.2512L63.8837 98.2435L63.89 98.2766L63.9606 98.3452L64.006 98.4163L64.1636 98.6005L64.3339 98.9257L64.4789 99.2662L64.5306 99.4059L64.117 99.6346L64.1157 99.6371Z" fill="#663300"/>
<path d="M70.656 100.496L70.5778 100.485L70.4933 100.457L70.3911 100.386L70.3445 100.336L70.3218 98.7344L70.4025 97.1324L70.4201 97.0575L70.4214 96.9736L70.3798 96.8504L70.323 96.7869L70.1856 96.7183L70.0973 96.7272L70.0241 96.7501L69.9295 96.8034L69.8476 96.9394L69.6155 97.2023L69.5588 97.2468L69.4869 97.2938L69.4453 97.3738L69.4264 97.5009L69.4087 97.5949L69.3305 97.586L69.2372 97.6431L69.0253 97.9633L68.8639 98.1767L68.7239 98.3317L68.2144 97.5999L67.5775 96.7615L67.5309 96.7107L67.4186 96.6484L67.2976 96.6637H67.2534L66.807 96.8796L66.696 96.9127L66.556 96.9711L66.2685 97.0168L66.0062 97.0435L65.8561 96.9889L65.6644 97.0575L65.5963 97.1782L65.6102 97.2646L65.6695 97.3764L65.7779 97.4577L66.4362 97.6406L66.4589 97.6431L66.5573 97.6406V97.7257L66.5308 97.9569L66.4741 98.1259L66.5031 98.2542L66.6002 98.3583L66.493 98.5286L66.4539 98.662L66.4917 98.8195V98.8817L66.4249 100.05L66.406 100.048L66.3555 99.9946L66.1424 99.9488L66.0755 99.9412L65.952 99.9717L65.8675 100.081V100.212L65.9595 100.387L66.0276 100.494L66.1071 100.588L66.1865 100.669L66.3063 100.769L66.4123 100.825L66.4778 100.866L66.7036 100.921L66.7175 100.923L67.2534 100.912L67.3518 100.927H67.3707L67.4249 100.921L67.5649 100.857L67.6154 100.762L67.6343 100.651L67.6583 100.042L67.6419 99.4305L67.6066 99.3226L67.6002 99.3149L67.6507 99.2717L67.7364 99.1765V99.0748L67.6923 98.944L67.6557 98.8881L67.7037 98.7585L67.739 97.9887L67.8146 98.0903L68.3683 98.9618L68.6785 99.4178L68.6924 99.5156L68.7088 99.5766L68.8059 99.71L68.9106 99.7341H68.937L69.0253 99.724L69.0997 99.6694L69.3986 99.2667L69.4806 99.1256L69.5008 99.057L69.6181 99.0418L69.7429 98.9122L69.7328 100.186L69.7025 100.301L69.695 100.319L69.6054 100.379L69.5134 100.424L69.3671 100.481L69.1666 100.517H69.106L69.0278 100.54L68.9093 100.625L68.8752 100.733L68.8853 100.805L68.9585 100.944L69.0518 100.979L69.1451 100.991L69.2611 100.959L69.3494 100.951L69.9926 100.941L70.574 100.961L70.6724 100.936L70.7505 100.885L70.8237 100.781V100.641L70.7543 100.559L70.656 100.496Z" fill="#663300"/>
<path d="M75.1329 99.3854L75.1254 99.2621L75.0497 99.2685L75.1241 99.2533L75.0888 99.1351L75.0346 99.0208L74.9564 98.8988L74.8845 98.8239L74.8151 98.7832L74.8025 98.7222L74.6928 98.5393L74.095 97.8292L73.8201 97.5345L73.5162 97.2435L73.0937 96.9221L72.7721 96.7049L72.6977 96.6719L72.569 96.6592L72.477 96.6871L72.3193 96.7964L71.9284 96.9806L71.5362 97.1254L71.231 97.2131L71.0834 97.241L71.0179 97.2486H70.9498L70.806 97.2346L70.7354 97.2651L70.6307 97.3604L70.613 97.4887L70.6509 97.5789L70.7038 97.6412L70.811 97.6971L70.8388 97.7021H70.8968L71.3407 97.7352L71.5753 97.7415L71.6989 97.739V97.819L71.7909 97.927L71.8464 97.9511L71.7644 98.1125L71.719 98.2281L71.7708 98.35L71.8338 98.425L71.7342 98.5914L71.6623 99.9202L71.5942 99.9075L71.405 99.8351L71.2234 99.7563L70.9851 99.5874H70.8602L70.7505 99.642L70.6837 99.7576L70.7038 99.8884L70.9384 100.182L71.1478 100.391L71.4391 100.618L71.6535 100.795L71.8666 100.895L71.9246 100.934L72.0091 100.98L72.1037 100.996L72.1907 100.982L72.9335 100.726L73.6688 100.423L73.7734 100.371L73.8705 100.278L73.9298 100.203L73.9588 100.148L74.0055 100.145L74.0849 100.129L74.1972 100.059L74.2741 99.9774H74.3359L74.4027 99.9951H74.4267L74.5263 99.9863L74.6083 99.9329L74.8126 99.75L74.9639 99.6407L75.0497 99.5556L75.1354 99.3866L75.1329 99.3854ZM73.9828 98.8976L73.8693 99.003L73.3219 99.3498L72.9713 99.5315L72.902 99.3168L72.8263 99.2088L72.8553 99.1415L72.8452 99.1034L72.9121 99.0449L72.9512 98.942L73.0609 97.6564L73.274 97.8177L73.5338 98.0794L73.7835 98.364L73.8239 98.411L73.8794 98.4987L73.9626 98.6994L73.9929 98.8277L73.9828 98.8976Z" fill="#663300"/>
<path d="M78.949 100.11L78.9036 100.063L78.5972 99.5488L78.3702 99.0851L77.8292 97.816L77.93 97.6305L78.007 97.4705L78.0436 97.3447L77.8922 97.0055L77.7762 96.7756L77.7257 96.6981L77.6274 96.6396H77.5063L77.2099 96.8543L76.6967 97.1338L76.2843 97.3333L76.0737 97.4209L75.9753 97.4501L75.8769 97.4717L75.7243 97.4895L75.6613 97.5442L75.5768 97.6902L75.6222 97.7919L75.689 97.8706L75.8265 97.9253L76.1456 97.8871L76.621 97.8033L76.6424 97.8871L76.6096 97.8948L76.5403 97.9316L76.4621 97.9989L76.4369 98.0891L76.4268 98.1895L76.4356 98.2479L76.4079 98.2695L75.6234 99.7165L75.6209 99.719L75.4885 99.6682L75.433 99.625L75.4103 99.5971L75.3157 99.5259H75.1808L75.0761 99.5983L75.0244 99.7317L75.2388 100.161L75.3447 100.336L75.5024 100.551L75.9476 100.945H76.0825L76.1733 100.895L76.2553 100.805L76.3057 100.691L76.312 100.611L76.4066 100.542L76.5201 100.306L77.4155 100.263L78.2693 100.272L78.2743 100.301L78.268 100.329L78.2378 100.385L78.1924 100.433L78.1596 100.462L77.9174 100.55L77.8657 100.604L77.7976 100.765L77.8657 100.871L77.949 100.94L78.0927 100.987L78.1999 100.961L78.4269 100.853L78.7914 100.72L78.9856 100.658L79.0638 100.649L79.2025 100.582L79.2467 100.448L79.2101 100.322L78.9503 100.109L78.949 100.11ZM77.3941 99.7698L76.7572 99.7978L76.7471 99.7774L76.8568 99.7101L76.8934 99.5844L76.8757 99.4624L76.8606 99.4471L76.9653 99.3963L77.2415 98.8666L77.4685 98.4512L78.0612 99.7114L77.3966 99.7698H77.3941Z" fill="#663300"/>
<path d="M51.2548 96.7549L51.1791 96.6888L51.0921 96.6444L50.9445 96.624L50.749 96.6304L50.3543 96.6875L50.1576 96.732L49.9104 96.8209V97.4714L49.9835 97.4523L49.9873 97.4993L49.9646 97.6238L49.9911 97.7419L50.0567 97.8182L50.0163 97.8563L49.9394 97.9795V98.1002L49.9508 98.2094V98.3111L49.9104 98.8332V100.805L49.976 100.84L50.0668 100.867L50.1349 100.899L50.3732 100.947L50.6154 100.965H50.8449L50.9748 100.934L51.0946 100.871L51.1539 100.782L51.1665 100.754L51.1841 100.665L51.1677 99.9613L51.1791 99.2384L51.135 99.1317V99.0873L51.1564 99.0047L51.174 98.8815L51.1665 98.8052L51.1198 98.6998L51.0542 98.6363L51.0492 98.5804L51.0378 98.5359L51.2182 98.3568L51.2434 98.2437L51.2384 97.5615L51.2535 97.3329L51.2686 97.1068L51.28 96.9251L51.2838 96.8806L51.2548 96.7549Z" fill="#663300"/>
</g>
<defs>
<clipPath id="clip0_2113_2771">
<rect width="85" height="101" fill="white"/>
</clipPath>
</defs>
</svg>
